<?xml version="1.0" encoding="UTF-8" standalone="no"?>
<!-- Created with Inkscape (http://www.inkscape.org/) -->

<svg
   xmlns:dc="http://purl.org/dc/elements/1.1/"
   xmlns:cc="http://creativecommons.org/ns#"
   xmlns:rdf="http://www.w3.org/1999/02/22-rdf-syntax-ns#"
   xmlns:svg="http://www.w3.org/2000/svg"
   xmlns="http://www.w3.org/2000/svg"
   xmlns:sodipodi="http://sodipodi.sourceforge.net/DTD/sodipodi-0.dtd"
   xmlns:inkscape="http://www.inkscape.org/namespaces/inkscape"
   version="1.1"
   id="svg4801"
   width="47.941006"
   height="48.472881"
   viewBox="0 0 47.941006 48.472883"
   sodipodi:docname="building-wine.svg"
   inkscape:version="0.92.2 5c3e80d, 2017-08-06">
  <metadata
     id="metadata4807">
    <rdf:RDF>
      <cc:Work
         rdf:about="">
        <dc:format>image/svg+xml</dc:format>
        <dc:type
           rdf:resource="http://purl.org/dc/dcmitype/StillImage" />
        <dc:title></dc:title>
      </cc:Work>
    </rdf:RDF>
  </metadata>
  <defs
     id="defs4805">
    <marker
       inkscape:stockid="Arrow1Lend"
       orient="auto"
       refY="0"
       refX="0"
       id="Arrow1Lend"
       style="overflow:visible"
       inkscape:isstock="true">
      <path
         id="path14388"
         d="M 0,0 5,-5 -12.5,0 5,5 Z"
         style="fill-rule:evenodd;stroke:#000000;stroke-width:1.00000003pt"
         transform="matrix(-0.8,0,0,-0.8,-10,0)"
         inkscape:connector-curvature="0" />
    </marker>
    <marker
       inkscape:stockid="Arrow1Lstart"
       orient="auto"
       refY="0"
       refX="0"
       id="Arrow1Lstart"
       style="overflow:visible"
       inkscape:isstock="true">
      <path
         id="path14385"
         d="M 0,0 5,-5 -12.5,0 5,5 Z"
         style="fill-rule:evenodd;stroke:#000000;stroke-width:1.00000003pt"
         transform="matrix(0.8,0,0,0.8,10,0)"
         inkscape:connector-curvature="0" />
    </marker>
  </defs>
  <sodipodi:namedview
     pagecolor="#ffffff"
     bordercolor="#666666"
     borderopacity="1"
     objecttolerance="10"
     gridtolerance="10"
     guidetolerance="10"
     inkscape:pageopacity="0"
     inkscape:pageshadow="2"
     inkscape:window-width="1271"
     inkscape:window-height="694"
     id="namedview4803"
     showgrid="false"
     inkscape:zoom="6.8492623"
     inkscape:cx="16.93438"
     inkscape:cy="23.606506"
     inkscape:window-x="0"
     inkscape:window-y="0"
     inkscape:window-maximized="0"
     inkscape:current-layer="g14337"
     inkscape:object-nodes="false"
     inkscape:snap-nodes="false"
     inkscape:snap-global="false"
     inkscape:pagecheckerboard="true"
     fit-margin-top="0"
     fit-margin-left="0"
     fit-margin-right="0"
     fit-margin-bottom="0" />
  <g
     id="g14337"
     transform="matrix(1.3484465,0,0,1.2844542,-683.82663,-676.55739)">
    <path
       style="fill:#3f0d12;stroke-width:0.63170952;fill-opacity:1"
       d="M 31.683594 0.017578125 C 21.537669 0.1576882 7.5078242 1.1530246 4.7578125 2.1582031 C 0.10789701 3.8578186 -0.20644478 4.7814161 0.072265625 15.949219 C 0.20342902 21.205205 0.49122163 26.616273 0.7109375 27.972656 C 1.7923377 35.0659 0.64001862 41.103939 1.3847656 47.818359 C 1.3847656 48.463836 3.9209359 48.623936 4.6992188 48.332031 C 5.322201 48.098376 14.641476 47.810218 25.410156 47.691406 C 36.178837 47.572543 45.544107 47.308078 46.220703 47.103516 C 46.8973 46.898966 47.583606 46.118002 47.746094 45.367188 C 47.907921 44.61636 47.985056 34.733054 47.916016 23.404297 C 47.768806 -0.75419297 48.348114 0.9409631 39.972656 0.19335938 C 38.015194 0.01863507 35.065569 -0.029125232 31.683594 0.017578125 z M 30.707031 3.8378906 C 33.461394 3.8299822 35.347828 3.8865746 35.505859 4.0371094 C 35.731428 4.25196 37.462416 4.4717004 39.351562 4.5253906 C 41.240709 4.5791065 43.088526 4.8014309 43.458984 5.0195312 C 43.897621 5.2777579 43.955709 6.6612734 43.623047 8.9863281 C 42.910622 13.965579 42.841687 21.358588 43.402344 33.019531 L 43.882812 43 C 38.918628 42.710291 36.14368 42.984171 31.34375 42.921875 C 30.402049 42.220216 31.398438 39.685807 31.398438 36.933594 C 31.398438 31.341465 31.452968 31.385223 24.115234 31.371094 C 21.089738 31.365275 19.722516 31.599122 19.666016 32.132812 C 19.621247 32.556682 19.649966 35.331739 19.730469 38.298828 L 19.876953 43.693359 L 13.824219 43.701172 C 10.495592 43.705796 7.1839185 43.860371 6.4628906 44.044922 C 5.7418628 44.229524 5.0126969 44.248807 4.84375 44.087891 C 4.6748436 43.926974 4.6125747 39.680326 4.7050781 34.650391 C 4.7975816 29.620455 4.9438054 21.010945 5.0292969 15.517578 C 5.1174583 9.8523644 5.4649032 5.2834511 5.8320312 4.9609375 C 6.382339 4.4774946 22.443942 3.8616159 30.707031 3.8378906 z "
       transform="matrix(0.74159412,0,0,0.7785408,507.12181,526.72753)"
       id="path13463" />
    <path
       id="path13459"
       d="m 513.36477,547.49006 10e-4,-3.39981 2.12647,0.0533 c 1.16955,-0.34579 2.73664,0.0491 2.51999,-0.38549 0.49292,0.30464 0.63122,5.7901 0.14187,6.07175 -0.198,0.11394 -1.44089,-0.10675 -2.62963,0.0653 l -2.16137,0.31279 10e-4,-2.71782 z"
       style="fill:#3f0d12;stroke-width:0.48000002;fill-opacity:1"
       inkscape:connector-curvature="0"
       sodipodi:nodetypes="ccccccccc" />
    <path
       id="path13457"
       d="m 529.16633,548.78463 c -0.11011,-0.10999 -0.19998,-1.18999 -0.19972,-2.4 l 4.8e-4,-2.2 h 3.23952 c 2.95664,0 3.22979,0.0838 3.12815,0.96 -0.0613,0.528 -0.17493,1.608 -0.25262,2.4 -0.13913,1.41846 -0.18295,1.44 -2.92844,1.44 -1.53295,0 -2.87727,-0.09 -2.98738,-0.2 z"
       style="fill:#3f0d12;stroke-width:0.48000002;fill-opacity:1"
       inkscape:connector-curvature="0" />
    <path
       id="path13455"
       d="m 521.08226,548.38077 c -0.15187,-0.15188 -0.27613,-1.19758 -0.27613,-2.32379 0,-1.54636 0.21044,-2.11444 0.8596,-2.32048 1.07607,-0.34153 4.88846,-0.21265 4.93461,0.16682 0.0188,0.15472 0.13288,1.09131 0.25345,2.08131 0.20725,1.70155 0.31639,2.481 -0.94713,2.481 -1.70672,-0.4583 -3.2232,-0.0658 -4.8244,-0.0849 z"
       style="fill:#3f0d12;stroke-width:0.48000002;fill-opacity:1"
       inkscape:connector-curvature="0" />
    <path
       id="path13453"
       d="m 513.22482,538.48324 0.14131,-2.93861 c 1.75806,-0.24104 3.89958,-0.18857 5.12425,0.3358 0.33938,0.53887 -0.10651,1.66748 -0.0118,3.0242 l 0.16754,2.4 -2.78131,0.0586 -2.78131,0.0586 z"
       style="fill:#3f0d12;stroke-width:0.48000002;fill-opacity:1"
       inkscape:connector-curvature="0" />
    <path
       id="path13451"
       d="m 532.56613,541.10923 -2.4,-0.2846 v -2.88 -2.88 l 2.64,0.15857 c 1.452,0.0872 2.7919,0.3039 2.97755,0.48154 0.40049,0.38322 -0.0993,5.87403 -0.5247,5.76449 -0.16107,-0.0415 -1.37285,-0.20348 -2.69285,-0.36 z"
       style="fill:#3f0d12;stroke-width:0.48000002;fill-opacity:1"
       inkscape:connector-curvature="0" />
    <path
       id="path13449"
       d="m 521.70613,540.10463 c -0.033,-0.528 -0.087,-1.77 -0.12,-2.76 l -0.06,-1.8 2.4,-0.14082 c 3.40629,-0.19986 4.17905,0.49086 3.78242,3.38082 l -0.31291,2.28 h -2.81475 c -2.47476,0 -2.82201,-0.11595 -2.87476,-0.96 z"
       style="fill:#3f0d12;stroke-width:0.48000002;fill-opacity:1"
       inkscape:connector-curvature="0" />
  </g>
  <g
     inkscape:groupmode="layer"
     id="layer1"
     inkscape:label="add"
     style="display:none"
     transform="translate(-213.59617,-695.34745)" />
  <g
     inkscape:groupmode="layer"
     id="layer2"
     inkscape:label="trash"
     style="display:none"
     transform="translate(-213.59617,-695.34745)" />
  <g
     inkscape:groupmode="layer"
     id="layer3"
     inkscape:label="trash 1"
     style="display:none"
     transform="translate(-213.59617,-695.34745)" />
</svg>
