<?xml version="1.0" encoding="UTF-8" standalone="no"?>
<!-- Created with Inkscape (http://www.inkscape.org/) -->

<svg
   xmlns:dc="http://purl.org/dc/elements/1.1/"
   xmlns:cc="http://creativecommons.org/ns#"
   xmlns:rdf="http://www.w3.org/1999/02/22-rdf-syntax-ns#"
   xmlns:svg="http://www.w3.org/2000/svg"
   xmlns="http://www.w3.org/2000/svg"
   xmlns:sodipodi="http://sodipodi.sourceforge.net/DTD/sodipodi-0.dtd"
   xmlns:inkscape="http://www.inkscape.org/namespaces/inkscape"
   version="1.1"
   id="svg4801"
   width="765.12"
   height="1051.6801"
   viewBox="0 0 765.12 1051.6801"
   sodipodi:docname="edit.svg"
   inkscape:version="0.92.2 5c3e80d, 2017-08-06">
  <metadata
     id="metadata4807">
    <rdf:RDF>
      <cc:Work
         rdf:about="">
        <dc:format>image/svg+xml</dc:format>
        <dc:type
           rdf:resource="http://purl.org/dc/dcmitype/StillImage" />
        <dc:title></dc:title>
      </cc:Work>
    </rdf:RDF>
  </metadata>
  <defs
     id="defs4805">
    <marker
       inkscape:stockid="Arrow1Lend"
       orient="auto"
       refY="0.0"
       refX="0.0"
       id="Arrow1Lend"
       style="overflow:visible;"
       inkscape:isstock="true">
      <path
         id="path14388"
         d="M 0.0,0.0 L 5.0,-5.0 L -12.5,0.0 L 5.0,5.0 L 0.0,0.0 z "
         style="fill-rule:evenodd;stroke:#000000;stroke-width:1.0pt;"
         transform="scale(0.8) rotate(180) translate(12.5,0)" />
    </marker>
    <marker
       inkscape:stockid="Arrow1Lstart"
       orient="auto"
       refY="0.0"
       refX="0.0"
       id="Arrow1Lstart"
       style="overflow:visible"
       inkscape:isstock="true">
      <path
         id="path14385"
         d="M 0.0,0.0 L 5.0,-5.0 L -12.5,0.0 L 5.0,5.0 L 0.0,0.0 z "
         style="fill-rule:evenodd;stroke:#000000;stroke-width:1.0pt"
         transform="scale(0.8) translate(12.5,0)" />
    </marker>
  </defs>
  <sodipodi:namedview
     pagecolor="#ffffff"
     bordercolor="#666666"
     borderopacity="1"
     objecttolerance="10"
     gridtolerance="10"
     guidetolerance="10"
     inkscape:pageopacity="0"
     inkscape:pageshadow="2"
     inkscape:window-width="1271"
     inkscape:window-height="694"
     id="namedview4803"
     showgrid="false"
     inkscape:zoom="2.4215799"
     inkscape:cx="340.93182"
     inkscape:cy="280.18543"
     inkscape:window-x="0"
     inkscape:window-y="0"
     inkscape:window-maximized="0"
     inkscape:current-layer="svg4801"
     inkscape:object-nodes="false"
     inkscape:snap-nodes="false"
     inkscape:snap-global="false" />
  <g
     id="g14293"
     transform="matrix(1.2788345,0,0,1.369148,-160.1027,-599.0581)">
    <path
       id="path13901"
       d="m 468.88267,972.19787 c -0.96991,-0.081 -2.02367,-0.4604 -2.34168,-0.8435 -0.38578,-0.4649 -0.64733,-3.6112 -0.78586,-9.4532 -0.1142,-4.8161 -0.39747,-9.4747 -0.62951,-10.3523 -0.51404,-1.9444 -0.32215,-2.5158 1.15686,-3.4449 3.85141,-2.4192 9.63368,-6.4571 11.96075,-8.3525 1.49014,-1.2138 3.02382,-2.20676 3.40819,-2.20676 0.38437,0 1.94781,1.09286 3.47433,2.42866 2.65192,2.3207 4.149,3.2354 10.36038,6.3305 1.52498,0.51184 2.56033,1.42089 3.70007,2.08878 0.7653,0.243 0.93329,1.14302 0.90356,2.97802 -0.0201,1.2397 0.0717,5.386 0.20406,9.214 0.29179,8.4418 0.13343,9.5081 -1.51519,10.2028 -0.73191,0.3084 -5.14289,0.5723 -10.6125,0.635 -5.148,0.059 -11.196,0.2906 -13.44,0.5147 -2.244,0.2241 -4.87356,0.3414 -5.84346,0.2607 z"
       style="fill:#000000;stroke-width:0.48000002"
       inkscape:connector-curvature="0" />
    <path
       id="path13899"
       d="m 489.45929,968.53187 c 4.55672,-0.016 7.97507,-0.228 8.26114,-0.5124 0.33057,-0.3286 0.25784,-1.7996 -0.22545,-4.56 -0.39239,-2.2411 -0.66459,-6.0234 -0.60489,-8.4049 0.0597,-2.3816 -0.0409,-4.572 -0.22368,-4.8677 -0.18272,-0.2956 -2.21805,-1.4463 -4.52295,-2.557 -2.3049,-1.1107 -4.78716,-2.4842 -5.51613,-3.0524 -4.2189,-3.2877 -4.70763,-3.324 -5.25536,-2.7763 -1.87139,0.87791 -3.23035,1.97548 -4.6196,3.047 -6.55548,5.087 -8.25442,6.7542 -8.30986,8.1546 -0.22783,5.7553 0.0609,15.65475 0.36746,16.13395 6.89762,1.18753 14.20437,-0.56809 20.64932,-0.60485 z"
       style="fill:#ffffff;fill-opacity:1;stroke-width:0.48000002"
       inkscape:connector-curvature="0" />
    <path
       id="path13897"
       d="m 481.44613,959.21327 c -2.45443,-1.99053 -8.46883,-3.75383 -10.281,-6.71683 0,-0.427 0.80773,-1.03177 0.96262,-1.03177 0.15489,0 2.72816,1.296 5.71838,2.88 2.99022,1.584 5.8683,2.88 6.39571,2.88 0.52743,0 1.54522,-0.702 2.26176,-1.56 4.08863,-4.8958 4.9995,-5.6625 5.99119,-5.0432 0.52324,0.3267 0.95134,0.8524 0.95134,1.1682 0,0.8199 -6.4017,6.4424 -8.4938,7.46 -2.12014,1.0313 -2.01655,1.0324 -3.5062,-0.036 z"
       style="fill:#000000;stroke-width:0.48000002"
       inkscape:connector-curvature="0" />
  </g>
  <g
     id="g14299"
     transform="matrix(1,0,0,0.77847562,-314.23714,187.5086)">
    <path
       id="path13729"
       d="m 604.45085,857.33896 c -2.76888,-0.67339 -4.0074,-1.50374 -5.32832,-6.45508 -0.56649,-2.12347 -1.58279,-5.25547 -2.25845,-6.96 -2.22099,-5.60319 -3.61402,-9.7645 -4.51379,-13.48383 -0.4876,-2.01552 -1.21692,-4.39152 -1.62072,-5.28 -1.85009,-4.07064 -1.39204,-9.28425 1.05644,-12.02462 1.63852,-1.83379 3.34759,-1.99363 6.30012,-0.58925 5.1018,2.42674 6.5678,2.42054 15.54725,-0.0657 2.70794,-0.74981 2.88013,-0.74376 4.08,0.14313 1.73724,1.2841 2.88449,3.80204 2.89827,6.36106 0.0201,3.73042 -2.42294,13.13755 -6.77123,26.07331 -3.10281,9.23055 -3.4951,10.12753 -5.06665,11.58471 -2.53966,1.37614 -2.37236,1.1671 -4.32292,0.69627 z"
       style="fill:#000000;stroke-width:0.48000002"
       inkscape:connector-curvature="0" />
    <path
       id="path13727"
       d="m 607.14044,853.18466 c 1.26497,-1.06185 3.62508,-6.67238 4.3917,-10.44 1.00611,-3.9782 2.97486,-7.72018 3.79124,-11.14089 0.94776,-3.13544 1.66995,-6.63649 1.99722,-9.37772 0.58388,-4.95081 0.29633,-6.27936 -1.48123,-6.84355 -9.07481,5.09776 -11.47888,1.48987 -20.70186,0.72216 -4.22481,2.82922 -1.21331,6.50713 -0.62195,10.42162 0.55257,3.8051 3.71972,13.43592 6.43845,19.57838 1.44856,3.02946 3.26403,9.46008 6.18643,7.08 z"
       style="fill:#ffffff;fill-opacity:1;stroke-width:0.48000002"
       inkscape:connector-curvature="0" />
    <path
       id="path13685"
       d="m 605.52613,811.94205 c -3.35424,-0.73809 -5.53267,-2.24155 -6.73239,-4.64645 -1.49793,-3.00264 -0.62378,-6.49833 2.39401,-9.5736 3.00997,-2.95185 7.56044,-1.16957 9.80164,1.18987 1.56052,1.66464 2.16803,3.64229 2.10996,6.86876 -0.0288,1.59811 -0.3346,2.17536 -1.84382,3.48 -1.67259,1.27458 -4.21195,2.97835 -5.7294,2.68142 z"
       style="fill:#000000;stroke-width:0.48000002"
       inkscape:connector-curvature="0" />
    <path
       id="path13683"
       d="m 607.26751,808.67263 c 3.45227,-1.51867 4.59092,-3.59328 3.29807,-6.00898 0.4342,-1.71235 -4.76678,-4.66545 -6.94938,-3.83899 -0.9593,0.36325 -3.13007,3.03144 -3.13007,4.50917 0,1.89705 1.26766,4.03977 3.0233,5.11027 1.84397,1.1243 1.73657,1.11778 3.75808,0.22853 z"
       style="fill:#ffffff;fill-opacity:0;stroke-width:0.48000002"
       inkscape:connector-curvature="0" />
  </g>
  <g
     id="g19193">
    <g
       transform="rotate(3.8582441,403.14,837.59142)"
       id="g19162">
      <path
         inkscape:connector-curvature="0"
         style="fill:#000000;stroke-width:0.32167011"
         d="m 406.10141,858.5272 c -2.32822,-0.13818 -4.68405,-0.43983 -5.45279,-0.69823 -2.05746,-0.6915 -7.07749,-4.55267 -7.53333,-5.79423 -0.20774,-0.56582 -1.65622,-5.14745 -1.75166,-7.79578 -0.54396,-5.2319 -0.6933,-6.31919 -1.13308,-11.90029 -1.42705,-6.60685 0.28207,-10.39274 4.96942,-12.6613 2.39288,-1.15808 7.49172,-2.37742 9.9416,-2.37742 1.63911,0 2.21425,-0.10681 2.3911,-0.44401 0.19326,-0.36851 0.5997,-0.41278 2.39055,-0.26029 2.9994,0.25537 3.92043,1.0144 3.8163,3.14511 -0.0416,0.85187 0.14313,3.40615 0.41054,5.67615 0.10782,3.7156 2.32589,5.19887 -2.46722,5.52858 -2.193,0.1485 -2.85082,0.0874 -4.11455,-0.38199 -2.45666,-0.91257 -3.60983,-0.97613 -4.8138,-0.26536 -1.3248,0.78209 -1.72086,2.04646 -1.35842,4.33632 0.38896,2.45738 2.42085,8.78403 2.94406,9.16685 0.23503,0.17197 1.38177,0.31565 2.54825,0.31926 2.0173,0.006 2.1352,-0.0318 2.41284,-0.77961 0.49846,-1.34246 1.38625,-1.82772 3.3438,-1.82772 2.75072,0 3.07202,0.42786 3.24685,4.32405 0.08,1.78344 0.30197,4.90633 0.49323,6.93977 0.0149,3.54137 0.91062,3.63939 -1.80397,5.20437 -0.92964,0.68021 -3.46515,0.8434 -8.47972,0.54577 z"
         id="path13711" />
      <g
         id="g19155"
         transform="rotate(1.0504924,403.85696,837.91417)">
        <path
           sodipodi:nodetypes="cccccccccsccccc"
           id="path13709"
           d="m 406.35057,846.78892 c -2.07889,0.26429 -4.36312,0.6756 -5.51235,-2.38394 -0.54001,-1.43766 -1.61389,-4.49698 -1.89733,-5.24878 -0.71818,-1.90498 -1.19593,-8.49304 -0.44554,-9.65008 1.00467,-1.5491 2.62419,-2.14201 5.55407,-2.26313 l 3.60316,0.23287 c -0.51048,-2.51315 -0.35445,-5.09976 -0.1513,-7.59051 -0.39967,-0.76211 -2.50952,-0.37917 -4.10501,-0.0833 -3.57729,0.66336 -5.70027,1.77562 -6.58132,2.198 -2.08763,1.00086 -3.6975,2.82043 -4.00651,5.81377 -0.233,2.25706 0.36256,8.5576 1.19243,12.76166 0.0761,3.39662 0.95878,6.44585 1.58665,9.81482 5.08446,4.97825 2.84191,4.29909 11.22867,5.52087 2.37742,0.4181 3.23748,0.58773 3.7963,-0.007 0.60826,-4.9076 0.42009,-10.84507 -4.26192,-9.11503 z"
           style="fill:#ffffff;fill-opacity:1;stroke-width:0.32167011"
           inkscape:connector-curvature="0" />
        <path
           id="path13707"
           d="m 414.94422,855.69591 c 0.11391,-2.29633 -0.60134,-11.89425 -0.86772,-12.18841 -3.28234,-1.2364 -2.71525,0.63915 -2.4594,1.84535 0.50156,2.35152 1.19452,9.59801 0.95076,9.94235 0.78103,1.86444 1.86594,2.27836 2.37636,0.40071 z"
           style="fill:#ffffff;fill-opacity:1;stroke-width:0.29138374"
           inkscape:connector-curvature="0" />
        <path
           sodipodi:nodetypes="cccccc"
           id="path13705"
           d="m 412.91747,828.67352 c -0.86003,-3.12293 -0.32122,-6.78348 -1.09112,-9.64375 -0.26151,-0.23058 -1.1134,-0.0571 -1.92752,-0.007 -1.28487,0.0788 -0.93223,-0.16391 -0.86353,0.75374 0.39362,5.25929 0.73498,8.41203 0.94603,8.80621 1.42741,0.74452 1.50224,0.63351 2.93614,0.091 z"
           style="fill:#ffffff;fill-opacity:1;stroke-width:0.32167011"
           inkscape:connector-curvature="0" />
      </g>
    </g>
    <path
       id="path13667"
       d="m 426.01004,835.15961 c 6.3309,-0.879 3.9355,-11.77952 1.54631,-16.45682 -0.6376,-1.14833 -0.6394,-1.29726 -0.0173,-1.42999 0.38195,-0.0815 0.8204,-0.0893 0.97436,-0.0174 0.29665,0.13848 2.48958,3.75685 2.8003,4.62037 1.02309,2.84317 1.23481,7.80975 0.43675,10.24423 -0.61757,2.59267 -1.5369,3.42712 -3.32575,5.04956 -1.42821,0.50751 -3.82785,-1.02824 -2.4147,-2.00996 z"
       style="fill:#000000;stroke-width:0.32167011"
       inkscape:connector-curvature="0" />
    <path
       id="path13651"
       d="m 419.28585,831.2996 c -0.24232,-0.31317 -0.2548,-0.84833 -0.0312,-1.33585 0.42445,-0.92546 0.82767,-5.49937 0.56515,-6.41054 -0.0956,-0.3317 -0.32319,-1.23817 -0.50581,-2.01441 -0.10136,-0.79142 -0.70486,-1.57461 -0.84854,-2.27279 0.70044,0.007 0.85873,-0.33305 1.33721,0.0204 3.59616,2.65679 1.74022,14.21431 -0.51678,12.01314 z"
       style="fill:#000000;stroke-width:0.32167011"
       inkscape:connector-curvature="0" />
    <path
       id="path13649"
       d="m 422.10828,833.19749 c 0.0162,-0.0344 0.42132,-0.45046 0.90207,-0.9239 2.47052,-2.43308 2.48393,-8.53591 0.0265,-12.10008 -0.74204,-1.07625 -0.85294,-1.48392 -0.49705,-1.82708 0.75971,0.0479 1.22669,-0.36344 1.60008,0.0442 3.62765,3.96013 2.58281,11.32976 1.66727,12.9666 -0.76769,1.36721 -1.78543,2.2396 -2.0324,2.27123 -0.41459,0.0531 -1.73036,-0.2871 -1.66652,-0.43093 z"
       style="fill:#000000;stroke-width:0.32167011"
       inkscape:connector-curvature="0" />
  </g>
  <g
     id="g14323"
     transform="matrix(1.2635834,0,0,1.0805919,-530.70362,73.380762)">
    <path
       id="path13597"
       d="m 604.32613,722.51008 c -2.60346,-0.40445 -9.68628,-1.04924 -12.96,-1.17984 -0.924,-0.037 -3.25078,-0.36317 -5.17063,-0.72509 -2.88053,-0.54303 -3.52477,-0.83304 -3.68599,-1.65927 -1.2055,-6.17774 -1.82926,-38.26738 -0.76454,-39.33206 0.53763,-0.53765 24.11806,-0.58306 26.18116,-0.0504 2.33225,0.89445 3.67741,3.27245 5.12802,4.87848 4.21748,4.6571 4.133,4.24689 4.17714,20.28278 0.0256,9.30495 -0.14804,14.7458 -0.50912,15.95098 -0.5063,1.68984 -0.68296,1.82904 -2.32161,1.82904 -3.39853,0.042 -6.69189,0.50576 -10.07443,0.005 z"
       style="fill:#000000;stroke-width:0.48000002"
       inkscape:connector-curvature="0" />
    <path
       id="path13595"
       d="m 614.17977,720.011 c -0.32083,-5.57991 0.065,-11.75831 0.22279,-17.0223 l -0.34601,-9.39695 -4.84346,0.34666 -4.84346,0.3467 -0.32295,-1.28678 c -0.17763,-0.70771 -0.34941,-3.26827 -0.38175,-5.69021 l -0.0588,-4.40347 c -5.09883,0.10813 -13.3448,-2.77543 -17.40482,0.14342 -1.55533,1.18709 -2.00153,5.61744 -1.67757,16.65658 0.14721,5.016 0.21735,10.90565 0.15589,13.08816 l 0.14361,4.47886 c 5.59738,1.86653 23.67814,4.44354 29.35653,2.73933 z"
       style="fill:#ffffff;fill-opacity:1;stroke-width:0.48000002"
       inkscape:connector-curvature="0" />
    <path
       id="path13593"
       d="m 607.68613,714.99419 c -0.66,-0.0988 -2.3953,-0.41304 -3.85621,-0.69821 -2.60766,-0.50899 -5.65744,-0.72269 -12.10379,-0.84826 -1.79794,-0.035 -3.24,-0.27672 -3.24,-0.54307 0,-0.72235 8.49732,-0.58714 14.0984,0.2243 2.67388,0.38741 5.28532,0.65741 5.80321,0.6 0.56617,-0.0627 1.01082,0.23064 1.11519,0.7357 0.0955,0.462 -0.004,0.81058 -0.22161,0.77462 -0.21735,-0.036 -0.93519,-0.14625 -1.59519,-0.24508 z"
       style="fill:#000000;stroke-width:0.48000002"
       inkscape:connector-curvature="0" />
    <path
       id="path13591"
       d="m 609.56613,708.38598 c -0.11,-0.10925 -5.14823,-0.32352 -11.19607,-0.47607 -6.04784,-0.15259 -11.10584,-0.38716 -11.24,-0.52132 -0.65998,-0.66 0.85788,-0.85844 6.0266,-0.78802 8.59105,0.11712 17.51269,0.4873 17.76242,0.73704 0.12275,0.12274 0.0808,0.45355 -0.0932,0.73512 -0.32379,0.52387 -0.90276,0.66787 -1.25974,0.31325 z"
       style="fill:#000000;stroke-width:0.48000002"
       inkscape:connector-curvature="0" />
    <path
       id="path13589"
       d="m 587.66563,700.75882 c 0,-0.64493 3.68832,-1.00885 7.79587,-0.16885 5.33364,1.09469 11.61618,-1.21033 15.49849,0.33306 -0.14318,0.42956 -1.09603,0.66466 -2.82496,0.69696 -1.4349,0.0269 -4.8769,0.20218 -7.6489,0.38967 -3.84534,-0.0746 -9.99073,0.11598 -12.8205,-1.25084 z"
       style="fill:#000000;stroke-width:0.48000002"
       inkscape:connector-curvature="0" />
    <path
       id="path13587"
       d="m 586.77703,695.57756 c -0.52463,-0.84888 0.0133,-0.966 5.37859,-1.17096 6.25235,-0.2389 9.29051,0.10061 9.29051,1.03824 0,0.52498 -0.44436,0.59429 -2.04,0.31819 -2.34237,-0.40521 -3.00288,-0.40454 -8.38103,0.009 -2.52308,0.19383 -4.0515,0.12399 -4.24807,-0.19406 z"
       style="fill:#000000;stroke-width:0.48000002"
       inkscape:connector-curvature="0" />
    <path
       id="path13585"
       d="m 594.85421,690.48183 c -1.25844,-0.32366 -3.52749,-0.55637 -5.04232,-0.51705 -2.81066,0.0729 -3.77337,-0.25911 -2.97376,-1.02552 0.26352,-0.25258 2.02923,-0.24495 4.288,0.0182 2.112,0.24633 5.298,0.58017 7.08,0.74188 1.782,0.16172 3.24,0.45927 3.24,0.6612 0,0.65002 -4.23293,0.72768 -6.59192,0.12101 z"
       style="fill:#000000;stroke-width:0.48000002"
       inkscape:connector-curvature="0" />
    <path
       id="path13583"
       d="m 612.84613,692.00847 c 0.858,-0.14702 1.56,-0.51312 1.56,-0.8135 -3.4311,-3.60967 -6.40833,-8.35501 -7.81761,-8.20669 -0.81917,0.0862 -0.82675,2.2204 -0.82239,6.16088 v 3.52598 l 2.76,-0.19968 c 1.518,-0.10982 3.462,-0.31996 4.32,-0.46699 z"
       style="fill:#ffffff;fill-opacity:1;stroke-width:0.48000002"
       inkscape:connector-curvature="0" />
  </g>
  <g
     id="g14313"
     transform="matrix(1.5891131,0,0,1.666842,-296.70794,-461.65177)">
    <path
       id="path13577"
       d="m 430.13743,712.52051 c -0.43128,-0.80583 -1.07621,-5.40668 -2.51765,-17.96026 -0.54553,-4.75109 -0.52523,-5.21669 0.26548,-6.09043 4.24775,-2.05112 24.62568,-4.04564 25.58269,-3.52033 1.82704,7.74952 3.80525,17.3872 3.05582,24.77633 -0.8711,2.6284 -25.24375,3.4406 -26.38637,2.79469 z"
       style="fill:#000000;stroke-width:0.48000002"
       inkscape:connector-curvature="0" />
    <path
       id="path13575"
       d="m 444.16441,709.55147 c 7.27229,-0.36869 9.92172,-0.97594 9.92172,-2.27391 0,-0.92174 -2.3136,-14.81539 -2.846,-17.09093 -0.23653,-1.01093 -0.56606,-1.97405 -0.7323,-2.14027 -0.52837,-0.52838 -6.08292,-0.12442 -11.5417,0.83942 -2.84336,0.82595 -6.55393,0.46774 -8.98936,2.07192 -0.28009,0.81365 0.88243,9.81845 1.90382,14.74695 l 0.84554,4.08 c 1.2375,0.24484 2.5331,0.39432 3.75828,0.33512 0.21906,-0.10949 3.67506,-0.36524 7.68,-0.56832 z"
       style="fill:#ffffff;fill-opacity:1;stroke-width:0.48000002"
       inkscape:connector-curvature="0" />
    <path
       id="path13573"
       d="m 442.47702,707.77671 c -0.59086,-0.15374 -0.889,-0.94718 -1.10524,-2.94129 -0.56914,-5.24827 -0.32588,-4.95845 -3.85783,-4.59663 -2.92932,0.30015 -3.10782,0.26112 -3.10782,-0.67953 0,-1.28655 0.41743,-1.5156 3.40729,-1.8697 l 2.47016,-0.29256 -0.31307,-3.05573 c -0.32553,-3.17736 -0.27108,-3.28507 1.82692,-3.61382 0.60463,-0.0947 0.96064,0.18024 1.05795,0.8172 0.0807,0.528 0.29322,1.99094 0.47237,3.25104 0.17914,1.26005 0.48321,2.38833 0.67569,2.50728 0.6298,0.38923 3.08969,0.40728 4.71902,0.0346 1.5413,-0.35251 1.59095,-0.318 1.44,1.00099 -0.13799,1.20591 -0.35336,1.36896 -1.83633,1.39027 -0.924,0.0134 -2.29615,0.0672 -3.04922,0.12 l -1.36923,0.0959 0.16923,3.91901 c 0.1704,3.94622 0.0124,4.33267 -1.59989,3.91305 z"
       style="fill:#000000;stroke-width:0.48000002"
       inkscape:connector-curvature="0" />
  </g>
  <g
     id="g14327"
     transform="matrix(1.1061582,0,0,1.2439399,-283.69108,29.809275)">
    <path
       id="path13485"
       d="m 498.94509,615.7286 -10.34507,-0.0601 -2.99489,-0.0877 c -0.57614,-3.28523 -0.46884,-6.60878 -0.50005,-9.92956 -0.11784,-12.53287 0.32601,-25.72135 0.89168,-26.49495 0.98958,-1.35332 7.5839,-2.03438 17.65697,-1.82361 5.07784,0.10625 9.79888,0.19606 10.4912,0.1996 2.205,0.0112 2.43999,0.84624 1.64179,5.83386 -0.39596,2.47416 -0.93672,9.03448 -1.20169,14.57848 -0.75032,15.69917 0.15899,15.96258 -1.68656,17.37025 -4.43413,1.76491 -10.07576,0.43988 -13.95338,0.41373 z"
       style="fill:#000000;stroke-width:0.48000002"
       inkscape:connector-curvature="0" />
    <path
       id="path13483"
       d="m 509.18235,608.52843 c 0.98928,-0.98929 2.32903,-25.93015 1.3377,-27.15744 -5.85135,0.1717 -14.50711,-1.17696 -20.35953,0.39908 -1.43297,0.89344 -0.49557,5.85583 -0.69079,17.01959 l -0.18129,10.36705 c 6.34562,-0.51814 13.18424,0.32215 19.89389,-0.62831 z"
       style="fill:#ffffff;fill-opacity:1;stroke-width:0.48000002"
       inkscape:connector-curvature="0" />
  </g>
  <g
     id="g14337"
     transform="matrix(1.3484465,0,0,1.2844542,-470.23046,18.790058)">
    <path
       id="path13463"
       d="m 508.14876,563.95599 c -0.5523,-5.22745 0.30224,-9.92898 -0.49972,-15.45136 -0.16294,-1.056 -0.37585,-5.268 -0.47312,-9.36 -0.20669,-8.69459 0.0261,-9.41408 3.47445,-10.7373 2.71919,-1.04343 20.3087,-2.07355 26.11527,-1.52943 6.21119,0.58204 5.78098,-0.73782 5.89015,18.07055 0.0512,8.8199 -0.006,16.51444 -0.12601,17.09899 -0.1205,0.58454 -0.62962,1.19309 -1.13138,1.35234 -0.50176,0.15926 -7.44629,0.36528 -15.43228,0.45782 -7.98599,0.0925 -14.89799,0.31709 -15.35999,0.499 -0.57717,0.22726 -2.45737,0.10192 -2.45737,-0.40061 z"
       style="fill:#000000;stroke-width:0.48000002"
       inkscape:connector-curvature="0" />
    <path
       id="path13461"
       d="m 517.37429,560.75119 4.48815,-0.007 -0.10858,-4.2 c -0.0597,-2.31 -0.0814,-4.47 -0.0482,-4.8 0.0419,-0.4155 1.05674,-0.59798 3.30043,-0.59345 5.44162,0.011 5.4,-0.0224 5.4,4.3313 0,2.14271 -0.73796,4.11502 -0.0396,4.66129 3.5596,0.0485 5.61736,-0.16395 9.29877,0.0616 l -0.35586,-7.77037 c -0.41578,-9.07852 -0.36577,-14.8335 0.16256,-18.71005 0.2467,-1.81015 0.20461,-2.88735 -0.12068,-3.08839 -0.27473,-0.1698 -1.64578,-0.34294 -3.04676,-0.38476 -1.40098,-0.0418 -2.6841,-0.2129 -2.85138,-0.38017 -0.46878,-0.46879 -21.46286,0.21643 -22.007,0.71827 -0.27226,0.25109 -0.52988,3.80811 -0.59526,8.21871 -0.0634,4.27681 -0.1714,10.98002 -0.24,14.89603 -0.0686,3.91601 -0.0222,7.22252 0.10306,7.3478 0.12529,0.12528 0.66529,0.11022 1.2,-0.0335 0.53471,-0.14368 2.99187,-0.26419 5.46036,-0.26779 z"
       style="fill:#ffffff;fill-opacity:1;stroke-width:0.48000002"
       inkscape:connector-curvature="0" />
    <path
       id="path13459"
       d="m 513.36477,547.49006 10e-4,-2.7178 2.12647,-0.6287 c 1.16955,-0.34579 2.30355,-0.51926 2.51999,-0.38549 0.49292,0.30464 0.52295,5.33543 0.0336,5.61708 -0.198,0.11394 -1.33262,0.34792 -2.52136,0.51994 l -2.16137,0.31279 10e-4,-2.71782 z"
       style="fill:#000000;stroke-width:0.48000002"
       inkscape:connector-curvature="0" />
    <path
       id="path13457"
       d="m 529.16633,548.78463 c -0.11011,-0.10999 -0.19998,-1.18999 -0.19972,-2.4 l 4.8e-4,-2.2 h 3.23952 c 2.95664,0 3.22979,0.0838 3.12815,0.96 -0.0613,0.528 -0.17493,1.608 -0.25262,2.4 -0.13913,1.41846 -0.18295,1.44 -2.92844,1.44 -1.53295,0 -2.87727,-0.09 -2.98738,-0.2 z"
       style="fill:#000000;stroke-width:0.48000002"
       inkscape:connector-curvature="0" />
    <path
       id="path13455"
       d="m 521.08226,548.38077 c -0.15187,-0.15188 -0.27613,-1.19758 -0.27613,-2.32379 0,-1.54636 0.21044,-2.11444 0.8596,-2.32048 1.07607,-0.34153 4.88846,-0.21265 4.93461,0.16682 0.0188,0.15472 0.13288,1.09131 0.25345,2.08131 0.20725,1.70155 0.31639,2.481 -0.94713,2.481 -1.70672,-0.4583 -3.2232,-0.0658 -4.8244,-0.0849 z"
       style="fill:#000000;stroke-width:0.48000002"
       inkscape:connector-curvature="0" />
    <path
       id="path13453"
       d="m 513.22482,538.48324 0.14131,-2.93861 c 1.75806,-0.24104 3.89958,-0.18857 5.12425,0.3358 0.33938,0.53887 -0.10651,1.66748 -0.0118,3.0242 l 0.16754,2.4 -2.78131,0.0586 -2.78131,0.0586 z"
       style="fill:#000000;stroke-width:0.48000002"
       inkscape:connector-curvature="0" />
    <path
       id="path13451"
       d="m 532.56613,541.10923 -2.4,-0.2846 v -2.88 -2.88 l 2.64,0.15857 c 1.452,0.0872 2.7919,0.3039 2.97755,0.48154 0.40049,0.38322 -0.0993,5.87403 -0.5247,5.76449 -0.16107,-0.0415 -1.37285,-0.20348 -2.69285,-0.36 z"
       style="fill:#000000;stroke-width:0.48000002"
       inkscape:connector-curvature="0" />
    <path
       id="path13449"
       d="m 521.70613,540.10463 c -0.033,-0.528 -0.087,-1.77 -0.12,-2.76 l -0.06,-1.8 2.4,-0.14082 c 3.40629,-0.19986 4.17905,0.49086 3.78242,3.38082 l -0.31291,2.28 h -2.81475 c -2.47476,0 -2.82201,-0.11595 -2.87476,-0.96 z"
       style="fill:#000000;stroke-width:0.48000002"
       inkscape:connector-curvature="0" />
  </g>
  <g
     id="g14381"
     transform="matrix(1.2422033,0,0,1.2422962,-92.366113,90.129294)">
    <path
       sodipodi:nodetypes="cccccscscccsccsccccccccscc"
       inkscape:connector-curvature="0"
       id="path13363"
       d="m 334.85412,506.45663 c -0.72582,-0.57093 -1.54253,-1.60369 -1.81492,-2.29502 -0.27238,-0.69134 -0.687,-6.76497 -0.92138,-13.49697 l -0.42616,-12.24 0.44234,-2.98153 c 1.46158,-2.98831 2.50422,-2.57126 10.59213,-2.8186 3.3,-0.10092 8.54014,-0.41461 11.64475,-0.69708 5.84599,-0.53188 6.16963,-0.86418 6.16963,0.39587 0,0.53865 -2.63381,1.96037 -3.49837,1.7951 -5.91142,0.75527 -11.81055,0.0147 -18.82427,1.10809 -1.22073,0.20788 -2.19749,0.75913 -2.81814,1.59048 -0.86445,1.15793 -0.94282,1.97801 -0.87147,9.12 0.11825,11.83683 0.40696,15.63218 1.29189,16.98275 0.72165,1.10138 1.05169,1.18396 4.68119,1.17126 2.14763,-0.008 7.88585,-0.21628 12.75157,-0.46392 6.84713,-0.34849 9.01255,-0.61603 9.58015,-1.18363 0.58761,-0.5876 0.76006,-2.33192 0.86767,-8.77608 0.0739,-4.42349 0.2988,-7.99786 0.49985,-7.94303 0.20106,0.0548 0.75244,-0.65444 1.22529,-1.57613 0.84744,-1.65184 1.9504,-1.83468 1.69521,-0.28103 0.11048,1.24013 0.35863,2.42705 0.11797,3.53149 -0.21348,0.94657 -0.42489,3.63464 -0.46978,5.97351 -0.18837,9.81297 -0.86357,12.25088 -3.62438,13.08624 -0.80232,0.24276 -7.19904,0.57524 -14.21493,0.73884 -12.57229,0.29316 -12.77519,0.28248 -14.07585,-0.74061 z"
       style="fill:#000000;stroke-width:0.48000002" />
    <path
       id="path13361"
       d="m 337.24194,505.60258 c -0.14347,-0.23213 -0.70856,-0.53914 -1.25576,-0.68224 -0.81689,-0.21362 -0.8936,-0.1381 -0.42871,0.42206 0.60692,0.7313 2.12008,0.96501 1.68447,0.26018 z"
       style="fill:#000000;stroke-width:0.48000002"
       inkscape:connector-curvature="0" />
    <path
       id="path13359"
       d="m 353.15613,504.77464 c -0.1595,-0.1595 -0.5735,-0.17655 -0.92,-0.0379 -0.38291,0.15322 -0.26917,0.26696 0.29,0.28999 0.506,0.0208 0.7895,-0.0926 0.63,-0.2521 z"
       style="fill:#000000;stroke-width:0.48000002"
       inkscape:connector-curvature="0" />
    <path
       id="path13357"
       d="m 359.52613,504.58464 c 0,-0.60692 -0.98086,-0.60692 -1.92,0 -0.56106,0.36258 -0.42861,0.46692 0.6,0.47265 0.726,0.004 1.32,-0.20865 1.32,-0.47265 z"
       style="fill:#000000;stroke-width:0.48000002"
       inkscape:connector-curvature="0" />
    <path
       id="path13353"
       d="m 344.3078,495.70943 c 0.0961,-3.51409 0.12617,-3.59533 1.33188,-3.60001 0.67845,-0.002 1.90662,0.58922 2.72927,1.31522 0.82264,0.726 1.87141,1.54936 2.33059,1.82969 0.96315,0.58801 0.53129,1.6429 -0.68174,1.66529 -0.44642,0.008 -1.67567,0.54713 -2.73167,1.19754 -2.92838,1.80364 -3.08994,1.67303 -2.97833,-2.40773 z"
       style="fill:#000000;stroke-width:0.48000002"
       inkscape:connector-curvature="0" />
    <path
       id="path13341"
       d="m 353.15327,492.70464 c -0.41891,-0.462 -1.74634,-1.272 -2.94985,-1.8 -3.21797,-1.41178 -3.33234,-1.15726 3.83536,-8.53536 2.88605,-2.97077 5.89535,-6.24918 6.68735,-7.28538 0.792,-1.0362 3.20083,-3.66468 5.35295,-5.84105 4.51171,-4.56256 6.45868,-5.37685 8.73019,-3.65124 1.8194,1.38215 1.5695,3.69683 -0.60814,5.63303 -1.502,1.33546 -9.46226,10.24682 -15.63514,17.50324 -2.82058,3.31568 -4.21841,4.81676 -4.48546,4.81676 -0.0911,0 -0.50835,-0.378 -0.92726,-0.84 z"
       style="fill:#000000;stroke-width:0.48000002"
       inkscape:connector-curvature="0" />
    <path
       id="path13339"
       d="m 362.77991,480.06952 c 5.47042,-5.56331 10.01594,-10.42269 10.10115,-10.7986 0.15329,-0.6763 -2.20537,-1.91585 -2.7015,-1.41971 -0.13938,0.13938 -10e-4,0.25343 0.30657,0.25343 1.0793,0 0.53703,0.9936 -2.16349,3.96417 -3.53467,3.88811 -11.94068,12.55625 -14.48625,14.93798 -1.8984,1.7762 -2.55844,3.17785 -1.49648,3.17785 0.27158,0 4.96958,-4.5518 10.44,-10.11512 z"
       style="fill:#000000;stroke-width:0.48000002"
       inkscape:connector-curvature="0" />
    <path
       id="path13337"
       d="m 351.10563,488.77781 c 0.15189,-0.24576 0.0566,-0.58251 -0.21167,-0.74833 -0.2683,-0.16582 -0.48783,0.0352 -0.48783,0.44683 0,0.84313 0.28803,0.96728 0.6995,0.3015 z"
       style="fill:#000000;stroke-width:0.48000002"
       inkscape:connector-curvature="0" />
    <path
       id="path13335"
       d="m 355.94587,483.9127 c 0.51661,-0.83589 -0.0718,-1.01291 -0.73011,-0.21966 -0.3786,0.45618 -0.41502,0.7316 -0.0967,0.7316 0.28074,0 0.65282,-0.23037 0.82684,-0.51194 z"
       style="fill:#000000;stroke-width:0.48000002"
       inkscape:connector-curvature="0" />
    <path
       id="path13333"
       d="m 367.32613,471.89653 c 2.07524,-2.33676 2.85153,-3.85405 1.92,-3.75274 -0.71292,0.0775 -12.57398,13.79232 -12.59054,14.55827 -0.01,0.45661 6.73098,-6.36952 10.67054,-10.80553 z"
       style="fill:#000000;stroke-width:0.48000002"
       inkscape:connector-curvature="0" />
    <path
       id="path13331"
       d="m 374.40613,467.38464 c 0,-0.396 -0.324,-0.72 -0.72,-0.72 -0.74955,0 -0.9523,0.56769 -0.4,1.12 0.55231,0.5523 1.12,0.34955 1.12,-0.4 z"
       style="fill:#000000;stroke-width:0.48000002"
       inkscape:connector-curvature="0" />
  </g>
  <g
     id="g14368"
     transform="matrix(1.8289683,0,0,1.9207058,-251.87974,-242.14113)">
    <path
       id="path13355"
       d="m 283.7128,504.89931 c -0.56883,-0.56883 -0.6414,-1.92252 -0.19286,-3.59777 0.23468,-0.87651 0.55465,-1.07456 1.45734,-0.902 0.63615,0.12161 4.43989,0.0463 8.45274,-0.16729 4.01286,-0.21362 8.53811,-0.26295 10.05611,-0.10963 2.68411,0.27111 2.76,0.31834 2.76,1.71748 0,2.47513 -0.84141,2.71029 -9.84,2.75018 -4.488,0.0199 -9.066,0.21157 -10.17333,0.42594 -1.28916,0.24957 -2.19557,0.20752 -2.52,-0.11691 z"
       style="fill:#000000;stroke-width:0.48000002"
       inkscape:connector-curvature="0" />
    <path
       id="path13343"
       d="m 290.88613,494.61227 -7.44,0.13237 v -1.88316 -1.88315 l 8.4,-0.13644 c 2.85943,0.0863 11.46148,-1.27042 14.44337,0.3921 1.02946,0.57397 0.84453,1.85459 0.22115,3.29327 -5.22736,1.117 -10.84558,0.009 -15.62452,0.085 z"
       style="fill:#000000;stroke-width:0.48000002"
       inkscape:connector-curvature="0" />
    <path
       id="path13325"
       d="m 283.25777,486.2698 c -0.90794,-0.33586 -1.04526,-0.69509 -0.91949,-2.40523 l 0.14785,-2.01039 11.75416,0.0684 c 10.53018,0.0613 11.81724,0.15471 12.36,0.89698 0.33321,0.45569 0.60584,1.3008 0.60584,1.87802 0,2.03351 -0.85754,2.21423 -7.65512,1.6132 -4.58766,-0.40563 -7.3118,-0.4172 -10.00456,-0.0425 -4.11155,0.57213 -4.7457,0.57228 -6.28868,10e-4 z"
       style="fill:#000000;stroke-width:0.48000002"
       inkscape:connector-curvature="0" />
  </g>
  <g
     id="g14344"
     transform="matrix(1.1869827,0,0,1.2162374,-248.93734,345.69312)">
    <path
       id="path13315"
       d="m 453.60613,467.29325 c -2.71726,-0.45434 -7.25373,-2.21187 -9.02949,-3.49823 -3.37751,-2.44666 -7.29051,-11.09541 -7.29051,-16.11394 0,-6.08249 5.76157,-13.8914 9.94313,-14.72371 4.19523,-2.23775 7.76124,-3.28967 11.66753,-3.5651 5.1285,-0.33587 12.06665,4.19287 13.67234,5.91637 2.88476,3.96733 3.37432,9.11052 4.15649,13.40173 0.50274,2.72852 0.45025,3.41235 -0.5177,6.74365 -1.80044,6.1964 -5.15425,9.93095 -10.28746,11.45535 -2.2473,0.66738 -9.30335,0.88734 -12.31433,0.38388 z"
       style="fill:#000000;stroke-width:0.48000002"
       inkscape:connector-curvature="0" />
    <path
       id="path13313"
       d="m 454.08613,465.27599 c -2.0749,-2.16776 -3.36363,-5.3321 -3.88599,-8.00037 -0.68993,-3.73222 -1.06016,-4.34115 -3.3494,-5.50904 -2.55531,-1.30362 -3.15062,-2.88218 -2.11228,-5.60102 0.43202,-1.13122 1.12005,-2.244 1.52895,-2.47283 1.68697,-0.94408 0.84077,-5.32447 -1.07816,-5.32447 -2.09855,-0.87008 -2.22983,-0.46801 -3.49778,2.00418 -1.30811,2.6108 -2.21657,8.34151 -1.80911,11.4122 0.77904,5.871 4.06589,10.63253 8.55489,12.39312 3.6858,1.44557 5.64888,1.82723 5.64888,1.09823 z"
       style="fill:#ffffff;fill-opacity:1;stroke-width:0.48000002"
       inkscape:connector-curvature="0" />
    <path
       id="path13311"
       d="m 463.35358,465.19259 c 1.1069,-0.28161 2.87655,-1.10062 3.93255,-1.82001 1.83068,-1.24715 5.605,-3.77292 6.10974,-7.18635 0.61855,-1.9493 2.59099,-3.68695 0.98692,-12.38545 -0.1517,-0.93483 -0.58472,-1.81824 -0.96227,-1.96311 -1.12718,-0.43254 -4.4342,0.79643 -5.5279,2.05429 -1.35586,1.55938 -3.56484,1.55418 -5.25429,-0.0124 -0.7029,-0.65176 -1.41249,-1.60877 -1.57687,-2.12669 -0.43266,-1.36319 1.09172,-6.82508 2.25329,-8.0736 l 0.99113,-1.06531 -1.30112,-0.49469 c -1.75068,-0.66561 -3.74705,-0.62272 -7.49266,0.16097 -2.81351,0.66927 -5.17914,1.17527 -7.09555,2.64362 -0.3975,0.30456 -0.36836,1.54662 -0.77142,1.84675 0,1.21424 2.84564,3.97398 4.35774,3.97398 0.88083,0 1.97776,1.0029 2.19061,2.06712 0.15247,0.76237 0.1352,1.16654 0.89798,1.73049 1.498,1.10752 3.31467,4.24098 3.31467,5.71726 0,0.50222 -0.63946,1.71778 -1.42102,2.70125 -1.98207,2.4941 -2.12765,3.2923 -1.00266,5.49746 1.18213,2.31717 1.23545,3.53595 0.22231,5.0822 -0.41876,0.6391 -0.62201,1.3875 -0.45167,1.66311 0.40252,0.6513 5.02366,0.64467 7.60049,-0.0109 z"
       style="fill:#ffffff;fill-opacity:1;stroke-width:0.48000002"
       inkscape:connector-curvature="0" />
    <path
       id="path13309"
       d="m 455.34401,462.12687 c 0.14726,-0.38376 -0.1817,-1.89902 -0.73103,-3.36724 l -0.99879,-2.6695 1.43597,-3.03924 c 0.78979,-1.67159 1.43597,-3.46545 1.43597,-3.98636 0,-0.52091 -0.77283,-1.84999 -1.7174,-2.95351 -2.087,-2.43819 -3.50656,-2.58479 -6.64669,-0.68641 -2.5424,1.53702 -2.02467,4.07074 0.31996,4.85266 2.10068,0.70056 2.14444,0.35867 2.97832,5.50991 0.35808,2.21203 1.00192,4.70037 1.43076,5.52966 0.82147,1.58853 2.042,1.98513 2.49293,0.81003 z"
       style="fill:#000000;stroke-width:0.48000002"
       inkscape:connector-curvature="0" />
    <path
       id="path13307"
       d="m 466.36539,442.18461 c 0.4626,0 0.68074,-0.55818 0.68074,-1.74183 v -1.74184 l 2.31477,0.30706 c 1.27313,0.16889 2.45475,0.1671 2.62582,-0.004 0.55318,-0.55317 -1.66736,-3.13558 -3.93007,-4.57055 -2.04286,-1.29555 -2.24668,-1.33702 -2.80667,-0.57118 -0.33211,0.45419 -0.60385,1.30686 -0.60385,1.89481 0,1.6123 -0.48626,2.55498 -1.1805,2.28857 -0.73452,-0.28186 -1.39413,1.87255 -0.97633,3.18891 0.29445,0.92775 1.46314,1.44577 2.55609,1.13298 0.35159,-0.10062 0.94559,-0.18295 1.32,-0.18295 z"
       style="fill:#ffffff;fill-opacity:0;stroke-width:0.48000002"
       inkscape:connector-curvature="0" />
  </g>
  <g
     inkscape:groupmode="layer"
     id="layer1"
     inkscape:label="add"
     style="display:none" />
  <g
     inkscape:groupmode="layer"
     id="layer2"
     inkscape:label="trash"
     style="display:none" />
  <g
     inkscape:groupmode="layer"
     id="layer3"
     inkscape:label="trash 1"
     style="display:none" />
  <g
     id="g14277"
     transform="matrix(1.2635408,0,0,1.3320847,-195.61136,-459.1932)">
    <path
       style="fill:#000000;stroke-width:0.48000002"
       d="m 419.4476,1006.5656 c -0.70318,-0.2957 -1.51343,-1.0531 -1.80053,-1.6832 -0.77454,-1.6999 -1.55178,-9.61423 -1.63988,-16.69823 l -0.0776,-6.24 2.49465,-0.0653 c -0.006,5.81341 0.84575,12.10026 0.68076,17.36558 -0.11061,3.20045 0.0113,4.00065 0.69631,4.56975 1.7304,1.4379 19.83742,0.9237 21.69258,-0.616 0.60964,-0.5059 0.68186,-2.0135 0.47432,-9.90085 -0.17638,-6.7032 -0.41257,-9.4077 -0.84493,-9.6749 -0.207,-1.90816 1.60457,-1.13724 3.03115,-0.484 0.21356,0.1927 0.42956,5.1241 0.48,10.9587 l 0.0917,10.60845 -1.92,0.7049 c -1.18912,0.4366 -4.56943,0.8031 -8.88,0.9628 -3.828,0.1418 -8.364,0.364 -10.08,0.4937 -1.7883,0.1353 -3.66571,0.01 -4.39853,-0.3014 z"
       id="path14265"
       inkscape:connector-curvature="0" />
    <path
       style="fill:#000000;stroke-width:0.48000002"
       d="m 435.30086,999.54928 c -0.15308,-3.65658 -1.01517,-14.07699 -0.29529,-15.89396 0.51874,0.36391 2.08349,-0.33829 2.1344,0.24812 0.41921,4.82818 0.28252,10.10157 0.38616,15.27461 0.42899,1.95325 -1.39236,2.21525 -2.22527,0.37123 z"
       id="path14267"
       inkscape:connector-curvature="0" />
    <path
       style="fill:#000000;stroke-width:0.48000002"
       d="m 424.22737,999.89883 c -0.92713,-0.64933 -0.33176,-0.89716 -0.31637,-5.60466 0.009,-2.8322 -0.21859,-6.3185 -0.50633,-7.7473 -0.28773,-1.4287 -0.46651,-2.6543 -0.39727,-2.7235 0.97998,-0.2715 1.76373,-0.31565 2.82621,-0.4388 l 0.21753,7.44 c 0.11965,4.092 0.32126,7.9128 0.44802,8.4906 0.30339,1.38293 -1.01523,1.46373 -2.27179,0.58366 z"
       id="path14269"
       inkscape:connector-curvature="0" />
    <path
       style="fill:#000000;stroke-width:0.48000002"
       d="m 430.22325,999.59078 c -0.82533,-3.0122 -1.06018,-7.88015 -0.85534,-15.84891 0.66414,-0.0879 1.69598,-0.15576 2.10435,0.1941 1.41272,5.4492 0.71645,9.46387 1.15503,15.717 0.13878,1.27543 -1.16625,1.01133 -2.40404,-0.0622 z"
       id="path14271"
       inkscape:connector-curvature="0" />
    <path
       style="fill:#000000;stroke-width:0.48000002"
       d="m 414.05497,979.86367 c -0.23987,-1.43401 0.12881,-1.8755 0.67148,-1.82623 0.85205,0.0774 1.96531,0.47015 2.01071,-1.49287 l 0.14897,-1.8 4.56,-0.24 4.56,-0.24 0.45508,-1.5451 c 0.56361,-1.9136 1.19783,-2.1726 3.85996,-1.576 1.15433,0.2587 2.76167,0.3378 3.57188,0.1758 1.3624,-0.2725 1.49652,-0.1775 1.78503,1.2651 l 0.31194,1.5597 2.44806,-0.3107 c 5.16061,-0.6549 4.83173,-0.7544 4.99565,1.5112 0.12532,1.7321 0.30644,2.0411 1.2,2.0474 0.57882,0 1.3764,0.22 1.7724,0.48 0.64,0.4201 0.64,0.5252 0,0.9453 -0.396,0.26 -1.26,0.4762 -1.92,0.4804 -6.26996,0.041 -20.06087,0.4614 -24.52897,0.7479 -3.95203,0.2535 -5.66572,0.2007 -5.90219,-0.1819 z"
       id="path14273"
       inkscape:connector-curvature="0" />
    <path
       style="fill:#000000;stroke-width:0.48000002"
       d="m 442.07061,976.64546 c -0.21648,-0.5641 -0.28049,-1.08284 -2.5822,-0.69034 -7.14516,0.18459 -13.7072,0.25031 -20.80036,0.76386 -0.5084,0.8528 0.12039,0.77846 0.12039,1.73404 4.1183,-0.99844 23.75696,-0.34434 23.26217,-1.80756 z"
       id="path14275"
       inkscape:connector-curvature="0" />
  </g>
  <rect
     style="opacity:1;fill:#fffcff;fill-opacity:0;stroke:#00ff00;stroke-width:3.78330708;stroke-miterlimit:4;stroke-dasharray:none;stroke-opacity:1"
     id="rect14383"
     width="50"
     height="50"
     x="351.72369"
     y="748.44" />
</svg>
