<?xml version="1.0" encoding="UTF-8" standalone="no"?>
<!-- Created with Inkscape (http://www.inkscape.org/) -->

<svg
   xmlns:dc="http://purl.org/dc/elements/1.1/"
   xmlns:cc="http://creativecommons.org/ns#"
   xmlns:rdf="http://www.w3.org/1999/02/22-rdf-syntax-ns#"
   xmlns:svg="http://www.w3.org/2000/svg"
   xmlns="http://www.w3.org/2000/svg"
   xmlns:sodipodi="http://sodipodi.sourceforge.net/DTD/sodipodi-0.dtd"
   xmlns:inkscape="http://www.inkscape.org/namespaces/inkscape"
   version="1.1"
   id="svg4801"
   width="47.186378"
   height="46.453526"
   viewBox="0 0 47.186379 46.453528"
   sodipodi:docname="globe-wine.svg"
   inkscape:version="0.92.2 5c3e80d, 2017-08-06">
  <metadata
     id="metadata4807">
    <rdf:RDF>
      <cc:Work
         rdf:about="">
        <dc:format>image/svg+xml</dc:format>
        <dc:type
           rdf:resource="http://purl.org/dc/dcmitype/StillImage" />
        <dc:title></dc:title>
      </cc:Work>
    </rdf:RDF>
  </metadata>
  <defs
     id="defs4805">
    <marker
       inkscape:stockid="Arrow1Lend"
       orient="auto"
       refY="0"
       refX="0"
       id="Arrow1Lend"
       style="overflow:visible"
       inkscape:isstock="true">
      <path
         id="path14388"
         d="M 0,0 5,-5 -12.5,0 5,5 Z"
         style="fill-rule:evenodd;stroke:#000000;stroke-width:1.00000003pt"
         transform="matrix(-0.8,0,0,-0.8,-10,0)"
         inkscape:connector-curvature="0" />
    </marker>
    <marker
       inkscape:stockid="Arrow1Lstart"
       orient="auto"
       refY="0"
       refX="0"
       id="Arrow1Lstart"
       style="overflow:visible"
       inkscape:isstock="true">
      <path
         id="path14385"
         d="M 0,0 5,-5 -12.5,0 5,5 Z"
         style="fill-rule:evenodd;stroke:#000000;stroke-width:1.00000003pt"
         transform="matrix(0.8,0,0,0.8,10,0)"
         inkscape:connector-curvature="0" />
    </marker>
  </defs>
  <sodipodi:namedview
     pagecolor="#ffffff"
     bordercolor="#666666"
     borderopacity="1"
     objecttolerance="10"
     gridtolerance="10"
     guidetolerance="10"
     inkscape:pageopacity="0"
     inkscape:pageshadow="2"
     inkscape:window-width="889"
     inkscape:window-height="676"
     id="namedview4803"
     showgrid="false"
     inkscape:zoom="2.4215799"
     inkscape:cx="20.850712"
     inkscape:cy="10.72827"
     inkscape:window-x="156"
     inkscape:window-y="0"
     inkscape:window-maximized="0"
     inkscape:current-layer="svg4801"
     inkscape:object-nodes="false"
     inkscape:snap-nodes="false"
     inkscape:snap-global="false"
     inkscape:pagecheckerboard="true"
     fit-margin-top="0"
     fit-margin-left="0"
     fit-margin-right="0"
     fit-margin-bottom="0" />
  <path
     id="path13307"
     d="m 466.36539,442.18461 c 0.4626,0 0.68074,-0.55818 0.68074,-1.74183 v -1.74184 l 2.31477,0.30706 c 1.27313,0.16889 2.45475,0.1671 2.62582,-0.004 0.55318,-0.55317 -1.66736,-3.13558 -3.93007,-4.57055 -2.04286,-1.29555 -2.24668,-1.33702 -2.80667,-0.57118 -0.33211,0.45419 -0.60385,1.30686 -0.60385,1.89481 0,1.6123 -0.48626,2.55498 -1.1805,2.28857 -0.73452,-0.28186 -1.39413,1.87255 -0.97633,3.18891 0.29445,0.92775 1.46314,1.44577 2.55609,1.13298 0.35159,-0.10062 0.94559,-0.18295 1.32,-0.18295 z"
     style="display:none;fill:#ffffff;fill-opacity:0;stroke-width:0.48000002"
     inkscape:connector-curvature="0" />
  <g
     id="g14344"
     transform="matrix(1.1869827,0,0,1.2162374,-519.05107,-522.22138)"
     style="display:inline;opacity:1;fill:#3f0d12;fill-opacity:1">
    <path
       style="display:inline;fill:#3f0d12;stroke-width:0.57673013;fill-opacity:1"
       d="M 26.816406,0.01171875 C 26.421229,-0.00669553 26.032809,-0.00404673 25.652344,0.02148438 21.015645,0.35647264 16.7824,1.6357866 11.802734,4.3574219 6.8392954,5.3697084 0,14.867873 0,22.265625 c 0,6.103724 4.6452509,16.621937 8.6542969,19.597656 2.1077961,1.564519 7.4914561,3.701321 10.7167971,4.253907 3.573981,0.612325 11.949681,0.344895 14.617187,-0.466797 6.093032,-1.854033 10.073847,-6.395348 12.210938,-13.931641 1.14894,-4.051652 1.211978,-4.882644 0.615234,-8.201172 C 45.886031,18.298448 45.30502,12.042012 41.880859,7.2167969 40.094054,5.2516233 32.744058,0.28793299 26.816406,0.01171875 Z M 26.96875,2.7753906 c 1.407914,-0.030993 2.51958,0.1577301 3.558594,0.5625 l 1.544922,0.6015625 -1.175782,1.296875 c -1.378763,1.5184967 -3.189341,8.1603969 -2.675781,9.8183599 0.195116,0.629912 1.036764,1.793242 1.871094,2.585937 2.005348,1.905333 4.628899,1.912201 6.238281,0.01563 1.298203,-1.529856 5.222604,-3.024118 6.560547,-2.498047 0.448145,0.176196 0.962513,1.249744 1.142578,2.386719 1.904003,10.579441 -0.437667,12.693641 -1.171875,15.064453 -0.599118,4.151541 -5.078968,7.223404 -7.251953,8.740234 -1.253454,0.874949 -3.354098,1.870386 -4.667969,2.212891 -3.058652,0.797329 -8.5437,0.805807 -9.021484,0.01367 -0.202191,-0.335207 0.04005,-1.244188 0.537109,-2.021484 1.20258,-1.880608 1.137543,-3.363412 -0.265625,-6.181641 -1.335343,-2.681998 -1.161275,-3.654082 1.191406,-6.6875 0.927699,-1.196133 1.685547,-2.674338 1.685547,-3.285156 0,-1.795507 -2.155493,-5.606118 -3.933593,-6.953125 -0.905407,-0.685897 -0.885427,-1.176293 -1.066407,-2.103516 -0.252649,-1.294344 -1.554079,-2.515625 -2.599609,-2.515625 -1.794837,0 -5.171875,-3.355227 -5.171875,-4.8320312 C 12.7753,8.6310644 12.739112,7.1204173 13.210938,6.75 15.485682,4.9641378 18.295178,4.3471943 21.634766,3.5332031 23.857753,3.0566266 25.560836,2.8063834 26.96875,2.7753906 Z M 7.8925781,10.449219 c 0.3884138,0.05599 0.8655456,0.225678 1.4882813,0.490234 2.2777366,0 3.2817006,5.326384 1.2792966,6.474609 -0.485357,0.278312 -1.3016526,1.631981 -1.8144529,3.007813 -1.2324916,3.306755 -0.5252962,5.226989 2.5078129,6.8125 2.717288,1.420431 3.155674,2.159953 3.974609,6.699219 0.620032,3.24525 2.150411,7.093958 4.613281,9.730468 0,0.886638 -2.330097,0.422219 -6.705078,-1.335937 C 7.9079628,40.18683 4.0067383,34.396389 3.0820312,27.255859 2.5983833,23.521171 3.6758117,16.552306 5.2285156,13.376953 6.3572917,11.121876 6.7273369,10.281258 7.8925781,10.449219 Z"
       transform="matrix(0.84247226,0,0,0.8222079,437.28613,429.37454)"
       id="path13315"
       inkscape:connector-curvature="0" />
    <path
       id="path13309"
       d="m 455.34401,462.12687 c 0.14726,-0.38376 -0.1817,-1.89902 -0.73103,-3.36724 l -0.99879,-2.6695 1.43597,-3.03924 c 0.78979,-1.67159 1.43597,-3.46545 1.43597,-3.98636 0,-0.52091 -0.77283,-1.84999 -1.7174,-2.95351 -2.087,-2.43819 -3.50656,-2.58479 -6.64669,-0.68641 -2.5424,1.53702 -2.02467,4.07074 0.31996,4.85266 2.10068,0.70056 2.14444,0.35867 2.97832,5.50991 0.35808,2.21203 1.00192,4.70037 1.43076,5.52966 0.82147,1.58853 2.042,1.98513 2.49293,0.81003 z"
       style="fill:#3f0d12;stroke-width:0.48000002;fill-opacity:1"
       inkscape:connector-curvature="0" />
  </g>
</svg>
