<?xml version="1.0" encoding="UTF-8" standalone="no"?>
<!-- Created with Inkscape (http://www.inkscape.org/) -->

<svg
   xmlns:dc="http://purl.org/dc/elements/1.1/"
   xmlns:cc="http://creativecommons.org/ns#"
   xmlns:rdf="http://www.w3.org/1999/02/22-rdf-syntax-ns#"
   xmlns:svg="http://www.w3.org/2000/svg"
   xmlns="http://www.w3.org/2000/svg"
   xmlns:sodipodi="http://sodipodi.sourceforge.net/DTD/sodipodi-0.dtd"
   xmlns:inkscape="http://www.inkscape.org/namespaces/inkscape"
   version="1.1"
   id="svg8577"
   width="905.33331"
   height="926.66669"
   viewBox="0 0 905.33331 926.66669"
   sodipodi:docname="r2d2-scan.jpg.svg"
   inkscape:version="0.92.2 5c3e80d, 2017-08-06">
  <metadata
     id="metadata8583">
    <rdf:RDF>
      <cc:Work
         rdf:about="">
        <dc:format>image/svg+xml</dc:format>
        <dc:type
           rdf:resource="http://purl.org/dc/dcmitype/StillImage" />
        <dc:title></dc:title>
      </cc:Work>
    </rdf:RDF>
  </metadata>
  <defs
     id="defs8581" />
  <sodipodi:namedview
     pagecolor="#ffffff"
     bordercolor="#666666"
     borderopacity="1"
     objecttolerance="10"
     gridtolerance="10"
     guidetolerance="10"
     inkscape:pageopacity="0"
     inkscape:pageshadow="2"
     inkscape:window-width="1323"
     inkscape:window-height="641"
     id="namedview8579"
     showgrid="false"
     inkscape:zoom="0.36016661"
     inkscape:cx="418.16215"
     inkscape:cy="507.57539"
     inkscape:window-x="0"
     inkscape:window-y="0"
     inkscape:window-maximized="0"
     inkscape:current-layer="svg8577" />
  <path
     style="fill:#000000;stroke-width:1.33333337"
     d="M 44.277733,859.97657 C 50.140844,829.16283 41.909126,773.68996 49.216218,751.46172 51.161242,732.98628 43.095304,681.09305 47.732029,645.76138 45.808705,592.77954 50.12413,539.63581 43.925893,486.8327 44.736961,446.72134 44.232563,405.61693 50.546312,365.29826 55.689505,289.01771 42.751858,226.85395 50.43267,132.80165 57.022631,105.19833 28.998177,26.055125 70.225193,31.902231 102.37233,34.87288 160.53111,31.587757 181.26425,29.62018 c 131.92077,10.971762 259.95407,17.669305 382.82791,0.01093 86.74204,2.54338 170.65003,13.606061 254.23703,4.748914 26.03579,-0.360466 103.67908,-20.96849 72.60646,29.372946 6.30929,64.38014 4.87026,90.99477 5.57348,130.27934 -7.55233,143.39243 3.11521,244.53526 -1.36449,360.80725 -4.03048,104.21104 16.41044,226.30462 -0.99444,314.36995 C 623.48032,867.1091 297.68004,884.31256 44.277733,859.97657 Z M 834.81083,832.37744 c 7.63745,-17.98167 0.84141,-59.59213 1.20638,-88.0673 -1.97969,-31.90979 7.86655,-74.81023 3.97348,-146.52492 5.01617,-32.10251 -15.95069,-71.9786 -44.82278,-41.77787 -0.44257,26.48128 8.84416,47.51454 4.16966,71.69136 0.77124,44.46085 -2.97458,89.99373 -5.37757,133.71195 1.19723,19.99378 -19.82221,58.83808 -1.71598,69.4059 14.09817,2.04153 28.35139,2.18398 42.56681,1.56088 z m -711.42401,-2.36558 c 23.8002,-5.11155 65.76458,5.85543 52.43049,-32.53091 3.23997,-11.66683 9.43423,-80.127 8.12818,-115.68895 3.44622,-41.92774 -6.07236,-83.67204 -3.23348,-125.74344 -33.61218,-9.79864 -67.42132,26.12791 -65.27328,60.68468 -4.27554,36.37423 6.20573,72.56911 0.5267,109.43627 -0.15077,34.49089 -5.51649,73.86399 -4.81982,105.33244 4.02802,-0.88123 8.14544,-1.10959 12.2412,-1.49009 z M 98.090877,674.65857 c -5.863157,-37.13033 -12.986275,-95.26263 9.248983,-128.39425 17.61389,-40.40661 92.13355,7.71234 75.68401,-52.35556 1.60507,-43.80363 -3.72562,-89.63752 9.87168,-131.90628 1.96855,-36.97714 16.81451,-71.41066 30.71363,-105.21097 6.41714,-28.19443 30.92701,-36.55871 46.28761,-59.33465 16.78308,-26.64593 52.87102,-37.56728 73.82482,-53.36139 25.27064,-16.01086 58.4879,-21.47337 88.6477,-27.44336 77.52354,-9.60232 138.6656,-21.045937 200.48584,22.7082 35.80989,18.38805 63.69948,47.94504 86.28902,80.80922 17.29992,29.00829 29.36202,59.74636 41.34584,91.25833 11.42825,36.90724 11.66211,75.76345 20.25138,113.1646 10.70703,28.82357 -2.08151,86.17032 19.637,99.16308 28.06988,-15.33707 59.50531,2.49468 60.99022,36.25699 -10.23665,133.40374 -2.99699,266.05557 3.54781,270.10819 5.52986,3.42415 15.62081,-94.54725 7.82657,-218.37633 6.03771,-39.73912 -4.59714,-84.37226 -3.28872,-124.41508 -2.47896,-91.13046 4.29801,-180.50967 -4.16593,-265.05304 2.20008,-58.36778 10.00203,-174.460716 -44.55903,-155.903151 -62.7982,2.586872 -129.72082,-4.425275 -192.29778,-5.043663 -53.52045,6.184419 -98.22299,1.228659 -151.78422,9.168695 -117.505,11.154471 -235.13528,-1.543844 -337.32125,0.719389 -23.72589,-5.992353 -78.323792,-8.922076 -64.392354,31.68194 0.08714,66.13787 0.676628,132.27377 5.636362,198.18794 0.01576,53.62657 5.102781,107.54117 -4.278216,160.71907 -2.966064,62.47164 -4.133483,135.4184 3.26424,197.49473 6.576168,59.94013 -19.626963,181.40011 5.635296,169.846 l 1.113991,0.3556 C 101.07335,779.63045 100.6298,719.98366 98.090877,674.65857 Z M 745.7931,827.6168 c 16.19797,-31.80697 16.26399,-72.23352 14.87161,-108.56895 -1.71902,-67.83584 7.51127,-135.94754 3.35826,-203.76661 -37.9769,8.38382 -81.90441,5.38655 -122.0073,11.60588 -58.46444,5.89274 -116.96251,13.89949 -175.82715,8.85417 -62.67483,1.29706 -125.67325,0.61866 -187.41022,-9.17475 -29.74234,3.37152 -85.40288,-25.66406 -73.58382,25.76502 4.54858,61.60751 1.26672,123.55151 -6.01461,184.74946 3.46371,28.03614 -1.69994,58.7694 -1.12341,88.12128 191.3566,0.49978 372.13871,-9.16427 547.73664,2.4145 z M 270.8088,733.71427 c -13.56862,-11.08897 4.87202,-42.05651 16.7217,-38.8781 26.40569,4.40097 57.37076,10.98204 76.35205,6.62284 35.28514,-2.58736 53.40147,-3.61881 90.36087,-5.09331 67.40935,2.25515 133.07593,-3.05527 199.53484,-6.25591 27.69887,50.43662 -54.73398,31.38387 -83.46032,36.97737 -44.68282,1.61251 -89.30102,-0.98911 -133.82462,5.34623 -53.39766,4.76673 -107.51029,-5.41792 -160.46039,3.49855 l -5.22414,-2.21762 z m 144.85977,-62.7981 c -50.8634,-3.00911 -102.02981,-5.30623 -152.81567,-4.63844 -8.67516,-54.35092 57.33404,-29.30291 90.27293,-32.63539 50.21292,0.0863 100.23312,-0.34685 150.28221,-3.14556 23.13325,1.36836 62.8695,-6.20115 93.14142,-4.61873 21.93302,5.21558 52.61397,-10.9362 70.41198,1.3007 2.32205,27.33726 -3.70417,41.28446 -31.81641,30.26694 -48.51085,0.54725 -96.66769,9.54024 -145.06865,7.86481 -17.17533,5.80708 -51.41627,5.89542 -74.40781,5.60567 z M 269.42132,609.14333 c 5.65398,-29.82087 -10.55139,-64.94399 31.67473,-43.55287 75.20221,-4.9496 156.40406,11.09922 224.04812,-0.78634 43.18925,-4.94378 89.2109,2.18426 129.87672,-15.05697 18.95413,-2.12943 31.05416,-3.92203 19.57348,21.54794 4.14971,14.84335 0.56245,22.18294 -7.17701,25.61493 -131.01135,-5.10008 -280.14187,28.14111 -397.99604,12.23331 z m -70.27714,107.02622 c -1.61245,-4.87488 -3.28842,4.74971 0,0 z M 352.05499,527.9195 c -2.28603,-2.2924 1.15114,7.45408 0,0 z m 195.08918,0.76116 c -7.05028,-2.28832 -7.03556,4.10673 0,0 z m -70.23613,-1.31238 c 6.88504,-8.58167 17.28157,2.28112 24.85165,-5.85914 24.30212,6.47673 66.03863,-1.30409 96.62484,-4.023 31.33725,-2.56485 64.08853,-7.41496 97.27483,-10.45551 25.87611,-6.73383 85.08804,10.73087 69.30743,-34.11278 1.27637,-50.77789 -15.92014,-99.01448 -31.18171,-146.3297 -8.87858,-28.02983 -12.21759,-61.59809 -29.52254,-88.16405 -10.68184,-23.53281 -28.97135,-38.90351 -46.29979,-55.58794 -55.14733,-48.04465 -147.18084,-60.7832 -210.15191,-42.68865 -38.8051,15.30791 -81.76957,18.19566 -117.21626,41.89236 -37.09553,21.79838 -67.69062,57.18246 -91.4504,93.39304 -30.84837,47.12204 -20.07603,105.44676 -30.75542,157.81338 -0.24688,25.6417 -0.59796,51.28224 -0.90863,76.92321 35.19449,-0.71316 70.34089,5.70242 104.68663,6.74924 27.44803,5.77094 54.03062,9.2825 82.45341,6.14826 25.05288,6.41674 64.49159,-5.48386 82.28787,4.30128 z m -94.45309,-13.42067 c 6.04653,-22.08191 -29.44945,-75.02703 7.84238,-70.7608 40.05313,-8.26162 22.56739,34.32054 37.31475,56.81779 6.84063,19.14274 -40.75394,16.12396 -45.15713,13.94301 z m -66.52319,-8.24913 c -29.80032,4.33811 -38.69896,-6.5963 -32.64442,-32.68983 -3.6458,-20.00481 -6.1473,-54.7673 2.65373,-60.05856 11.71674,-7.04422 40.34724,-7.00891 57.39395,1.74855 2.19462,28.48092 19.10763,95.61479 -27.40326,90.99984 z m 17.88585,-24.18259 c 7.95694,-13.70682 -10.87848,-0.45311 -12.88956,-6.63134 l -4.63641,17.08912 z m 117.81195,21.8974 c -7.98693,-33.36428 -9.96085,-84.25434 39.64208,-66.50385 21.49058,1.53731 61.17172,-12.51268 62.65592,22.73791 14.15244,40.2025 -18.14231,52.35825 -50.1935,43.78619 -17.221,-5.48695 -36.8618,6.27728 -52.1045,-0.0202 z m 90.31179,-15.4541 c 2.22689,-22.5699 -7.43984,-53.68556 -4.78777,-13.56149 4.74735,13.29166 -45.52078,15.60718 -7.31292,17.76516 5.86346,-3.81115 8.87762,-3.92907 12.10069,-4.20367 z M 218.6074,499.5709 c -5.83916,-24.0394 8.67814,-58.76112 1.87685,-82.25608 49.57809,-14.61214 36.95346,58.08381 30.61223,84.39694 -10.87242,-5.67897 -26.13802,1.87877 -32.48908,-2.14086 z m 389.8701,0.62791 c -44.92658,-4.38002 -44.30583,-77.33707 -0.72333,-82.01677 28.19869,-1.70734 72.84087,10.83456 61.98848,50.83351 -12.92582,19.59116 -37.48167,34.43955 -61.26515,31.18326 z m 35.38951,-21.45353 c 19.75182,-2.98538 13.09794,-40.05194 2.75142,-7.26806 0.41907,1.26805 -12.43981,12.21997 -2.75142,7.26806 z m 49.71197,16.51406 c -14.48401,-21.59892 -9.56512,-67.72527 -7.42425,-93.99696 25.5102,3.66378 55.81774,-14.14441 49.94718,26.29228 -6.37763,27.2436 32.88326,67.47449 -16.95774,65.70747 -8.41842,1.38087 -17.02081,2.53717 -25.56519,1.99721 z m -302.00031,-75.222 c -29.38398,-15.60747 -10.34843,-37.5215 -12.97572,-63.66487 1.79709,-44.9265 9.38695,-103.9417 69.20789,-93.54633 40.31888,-4.48085 80.60545,8.19924 121.11212,0.26198 34.46727,-5.88164 18.11486,39.9698 34.94338,63.41757 6.41701,30.91376 27.78326,88.82408 -24.01617,87.5579 -50.37737,1.56802 -101.95949,-11.21871 -151.74618,3.28829 -12.53188,3.3336 -24.14448,3.59672 -36.52532,2.68546 z M 520.457,376.79038 c 20.12234,-10.52337 -73.21471,1.13114 -18.37857,2.7656 l 9.52349,-0.92521 z M 389.38832,301.25283 c -2.28603,-2.29241 1.15115,7.45407 0,0 z m -90.86218,-62.36295 c 2.98821,-29.94934 42.62072,-42.35363 66.17359,-57.10895 22.26115,-13.19106 49.66436,-24.47979 75.50059,-25.67784 58.43689,-12.53117 27.03083,83.85807 2.59696,63.79234 -29.91168,1.67229 -71.7039,3.06837 -104.98655,12.22261 -13.5941,-4.01601 -28.18895,11.637 -39.28459,6.77184 z m 278.61803,-6.9771 c -32.80552,-11.20849 -97.26303,16.89686 -80.60944,-41.07662 -3.73,-31.50501 20.12047,-42.53753 43.06355,-40.5742 28.68454,6.77116 59.96279,18.80594 86.89698,34.47072 17.56026,14.31129 55.18741,48.59038 14.70932,45.91313 -16.3714,-4.16137 -43.86523,4.23304 -64.06041,1.26697 z M 521.36534,527.5028 c -6.83412,-5.26857 -8.51718,6.41057 0,0 z M 189.81085,387.58153 c -3.1116,-4.57972 -3.84029,2.54076 0,0 z m 9.33333,-46.66667 c -3.1116,-4.57974 -3.8403,2.54077 0,0 z"
     id="path13062"
     inkscape:connector-curvature="0"
     sodipodi:nodetypes="ccccccccccccccccccccccccccccccccccccccccccccccsccccccccccccccccccccccccccccccccccccccccccccccccccccccccccccccccccccccccccccccscccccccccccccccccccccccccccccccccccccccccccccccccccccccccccccccc" />
</svg>
