<?xml version="1.0" encoding="UTF-8" standalone="no"?>
<!-- Created with Inkscape (http://www.inkscape.org/) -->

<svg
   xmlns:dc="http://purl.org/dc/elements/1.1/"
   xmlns:cc="http://creativecommons.org/ns#"
   xmlns:rdf="http://www.w3.org/1999/02/22-rdf-syntax-ns#"
   xmlns:svg="http://www.w3.org/2000/svg"
   xmlns="http://www.w3.org/2000/svg"
   xmlns:sodipodi="http://sodipodi.sourceforge.net/DTD/sodipodi-0.dtd"
   xmlns:inkscape="http://www.inkscape.org/namespaces/inkscape"
   version="1.1"
   id="svg4801"
   width="41.868282"
   height="42.249226"
   viewBox="0 0 41.868283 42.249227"
   sodipodi:docname="telephone-red.svg"
   inkscape:version="0.92.2 5c3e80d, 2017-08-06">
  <metadata
     id="metadata4807">
    <rdf:RDF>
      <cc:Work
         rdf:about="">
        <dc:format>image/svg+xml</dc:format>
        <dc:type
           rdf:resource="http://purl.org/dc/dcmitype/StillImage" />
        <dc:title></dc:title>
      </cc:Work>
    </rdf:RDF>
  </metadata>
  <defs
     id="defs4805">
    <marker
       inkscape:stockid="Arrow1Lend"
       orient="auto"
       refY="0"
       refX="0"
       id="Arrow1Lend"
       style="overflow:visible"
       inkscape:isstock="true">
      <path
         id="path14388"
         d="M 0,0 5,-5 -12.5,0 5,5 Z"
         style="fill-rule:evenodd;stroke:#000000;stroke-width:1.00000003pt"
         transform="matrix(-0.8,0,0,-0.8,-10,0)"
         inkscape:connector-curvature="0" />
    </marker>
    <marker
       inkscape:stockid="Arrow1Lstart"
       orient="auto"
       refY="0"
       refX="0"
       id="Arrow1Lstart"
       style="overflow:visible"
       inkscape:isstock="true">
      <path
         id="path14385"
         d="M 0,0 5,-5 -12.5,0 5,5 Z"
         style="fill-rule:evenodd;stroke:#000000;stroke-width:1.00000003pt"
         transform="matrix(0.8,0,0,0.8,10,0)"
         inkscape:connector-curvature="0" />
    </marker>
  </defs>
  <sodipodi:namedview
     pagecolor="#ffffff"
     bordercolor="#666666"
     borderopacity="1"
     objecttolerance="10"
     gridtolerance="10"
     guidetolerance="10"
     inkscape:pageopacity="0"
     inkscape:pageshadow="2"
     inkscape:window-width="1271"
     inkscape:window-height="694"
     id="namedview4803"
     showgrid="false"
     inkscape:zoom="6.8492623"
     inkscape:cx="12.108003"
     inkscape:cy="36.274866"
     inkscape:window-x="0"
     inkscape:window-y="0"
     inkscape:window-maximized="0"
     inkscape:current-layer="svg4801"
     inkscape:object-nodes="false"
     inkscape:snap-nodes="false"
     inkscape:snap-global="false"
     fit-margin-top="0"
     fit-margin-left="-1.5"
     fit-margin-right="0"
     fit-margin-bottom="0"
     inkscape:pagecheckerboard="true" />
  <g
     id="g19162"
     transform="rotate(3.8582441,12334.693,-5365.7286)" />
  <g
     id="g37868"
     style="fill:#a71d31;fill-opacity:1">
    <path
       id="path13711"
       d="M 19.166016 0.001953125 C 18.814623 0.016411296 18.657637 0.10977401 18.548828 0.28710938 C 18.349689 0.61164522 17.770161 0.6786521 16.134766 0.56835938 C 13.690438 0.4035114 8.5200693 1.2770416 6.0546875 2.2714844 C 1.2253137 4.2194996 -0.73511214 7.8824138 0.24414062 14.570312 C 0.30738182 20.168356 0.38353663 21.262887 0.57421875 26.519531 C 0.49124113 29.168281 1.629632 33.8375 1.7988281 34.416016 C 2.1700927 35.685434 6.917561 39.874749 8.9238281 40.703125 C 9.6734386 41.012666 12.004714 41.47305 14.318359 41.767578 C 19.301537 42.401955 21.84115 42.409083 22.814453 41.792969 C 25.628195 40.414195 24.741418 40.257003 24.964844 36.722656 C 24.910844 34.680955 24.899267 31.550406 24.939453 29.765625 C 25.027187 25.866501 24.736672 25.417513 21.992188 25.232422 C 20.039074 25.100702 19.118912 25.524201 18.53125 26.830078 C 18.20392 27.557511 18.08459 27.587041 16.072266 27.445312 C 14.908672 27.36322 13.773707 27.144426 13.550781 26.957031 C 13.054516 26.539873 11.453195 20.089311 11.230469 17.611328 C 11.022931 15.30227 11.50253 14.068127 12.876953 13.376953 C 14.126021 12.748807 15.272422 12.889038 17.662109 13.964844 C 18.891391 14.518204 19.544165 14.623647 21.742188 14.623047 C 26.54662 14.616604 24.433732 12.987871 24.576172 9.2734375 C 24.462112 6.9905887 24.450002 4.4291714 24.548828 3.5820312 C 24.796094 1.4631572 23.928544 0.6441154 20.953125 0.1875 C 20.06486 0.051176282 19.517409 -0.012505046 19.166016 0.001953125 z M 20.416016 2.7070312 C 20.562258 2.7169169 20.779839 2.7362745 21.101562 2.7441406 C 21.916984 2.7638535 22.780662 2.6639098 23.021484 2.9160156 C 23.543808 5.83168 22.693554 9.4340751 23.283203 12.619141 C 21.808135 13.036963 21.723701 13.141271 20.365234 12.277344 C 20.188686 11.866553 20.117924 8.6955542 20.175781 3.421875 C 20.183333 2.731749 19.977289 2.6773745 20.416016 2.7070312 z M 17.078125 2.8242188 C 17.855338 2.8533745 18.472177 3.0016801 18.638672 3.3984375 C 18.223126 5.8626712 17.847064 8.426993 18.140625 10.974609 L 14.570312 10.433594 C 11.640814 10.303568 9.9772882 10.755441 8.84375 12.212891 C 7.9971027 13.301468 7.9083924 19.907747 8.4609375 21.867188 C 8.6789981 22.640483 9.4873344 25.779226 9.9023438 27.257812 C 10.785281 30.403505 13.09608 30.190951 15.189453 30.105469 C 20.000226 28.784606 19.682082 34.715861 18.65625 39.552734 C 18.048589 40.097461 17.205976 39.854369 14.873047 39.234375 C 6.6215947 37.299424 8.7980356 38.168491 4.1582031 32.773438 C 3.8209146 29.363093 3.2031299 26.24809 3.4179688 22.857422 C 2.9508743 18.597768 2.8969868 12.269861 3.3222656 10.041016 C 3.8862823 7.0850971 5.6449296 5.4103516 7.8105469 4.5917969 C 8.7245026 4.2463524 10.935709 3.319662 14.556641 2.9648438 C 15.364115 2.8857127 16.300912 2.7950627 17.078125 2.8242188 z M 21.404297 26.941406 C 21.809011 26.955277 22.376843 27.119864 23.167969 27.498047 C 23.408199 27.813917 23.30023 37.43668 22.990234 39.714844 C 22.321026 41.541935 21.27488 41.037719 20.65625 39.113281 C 20.928579 38.791065 20.859046 31.510813 20.560547 29.125 C 20.446775 28.207247 20.190155 26.899793 21.404297 26.941406 z "
       style="fill:#a71d31;stroke-width:0.32167011;fill-opacity:1" />
    <path
       id="path13667"
       d="m 35.6418,18.24777 c 6.3309,-0.879 3.9355,-11.77952 1.54631,-16.45682 -0.6376,-1.14833 -0.6394,-1.29726 -0.0173,-1.42999 0.38195,-0.0815 0.8204,-0.0893 0.97436,-0.0174 0.29665,0.13848 2.48958,3.75685 2.8003,4.62037 1.02309,2.84317 1.23481,7.80975 0.43675,10.24423 -0.61757,2.59267 -1.5369,3.42712 -3.32575,5.04956 -1.42821,0.50751 -3.82785,-1.02824 -2.4147,-2.00996 z"
       style="fill:#a71d31;stroke-width:0.32167011;fill-opacity:1"
       inkscape:connector-curvature="0" />
    <path
       id="path13651"
       d="m 28.91761,14.38776 c -0.24232,-0.31317 -0.2548,-0.84833 -0.0312,-1.33585 0.42445,-0.92546 0.82767,-5.49937 0.56515,-6.41054 C 29.35596,6.30967 29.12837,5.4032 28.94575,4.62696 28.84439,3.83554 28.24089,3.05235 28.09721,2.35417 c 0.70044,0.007 0.85873,-0.33305 1.33721,0.0204 3.59616,2.65679 1.74022,14.21431 -0.51678,12.01314 z"
       style="fill:#a71d31;stroke-width:0.32167011;fill-opacity:1"
       inkscape:connector-curvature="0" />
    <path
       id="path13649"
       d="m 31.74004,16.28565 c 0.0162,-0.0344 0.42132,-0.45046 0.90207,-0.9239 2.47052,-2.43308 2.48393,-8.53591 0.0265,-12.10008 -0.74204,-1.07625 -0.85294,-1.48392 -0.49705,-1.82708 0.75971,0.0479 1.22669,-0.36344 1.60008,0.0442 3.62765,3.96013 2.58281,11.32976 1.66727,12.9666 -0.76769,1.36721 -1.78543,2.2396 -2.0324,2.27123 -0.41459,0.0531 -1.73036,-0.2871 -1.66652,-0.43093 z"
       style="fill:#a71d31;stroke-width:0.32167011;fill-opacity:1"
       inkscape:connector-curvature="0" />
  </g>
  <g
     inkscape:groupmode="layer"
     id="layer1"
     inkscape:label="add"
     style="display:none"
     transform="translate(-390.36824,-816.91184)" />
  <g
     inkscape:groupmode="layer"
     id="layer2"
     inkscape:label="trash"
     style="display:none"
     transform="translate(-390.36824,-816.91184)" />
  <g
     inkscape:groupmode="layer"
     id="layer3"
     inkscape:label="trash 1"
     style="display:none"
     transform="translate(-390.36824,-816.91184)" />
</svg>
