<?xml version="1.0" encoding="UTF-8" standalone="no"?>
<!-- Created with Inkscape (http://www.inkscape.org/) -->

<svg
   xmlns:dc="http://purl.org/dc/elements/1.1/"
   xmlns:cc="http://creativecommons.org/ns#"
   xmlns:rdf="http://www.w3.org/1999/02/22-rdf-syntax-ns#"
   xmlns:svg="http://www.w3.org/2000/svg"
   xmlns="http://www.w3.org/2000/svg"
   xmlns:sodipodi="http://sodipodi.sourceforge.net/DTD/sodipodi-0.dtd"
   xmlns:inkscape="http://www.inkscape.org/namespaces/inkscape"
   version="1.1"
   id="svg4801"
   width="41.577831"
   height="48.037689"
   viewBox="0 0 41.577832 48.037691"
   sodipodi:docname="trash-wine.svg"
   inkscape:version="0.92.2 5c3e80d, 2017-08-06">
  <metadata
     id="metadata4807">
    <rdf:RDF>
      <cc:Work
         rdf:about="">
        <dc:format>image/svg+xml</dc:format>
        <dc:type
           rdf:resource="http://purl.org/dc/dcmitype/StillImage" />
        <dc:title></dc:title>
      </cc:Work>
    </rdf:RDF>
  </metadata>
  <defs
     id="defs4805">
    <marker
       inkscape:stockid="Arrow1Lend"
       orient="auto"
       refY="0"
       refX="0"
       id="Arrow1Lend"
       style="overflow:visible"
       inkscape:isstock="true">
      <path
         id="path14388"
         d="M 0,0 5,-5 -12.5,0 5,5 Z"
         style="fill-rule:evenodd;stroke:#000000;stroke-width:1.00000003pt"
         transform="matrix(-0.8,0,0,-0.8,-10,0)"
         inkscape:connector-curvature="0" />
    </marker>
    <marker
       inkscape:stockid="Arrow1Lstart"
       orient="auto"
       refY="0"
       refX="0"
       id="Arrow1Lstart"
       style="overflow:visible"
       inkscape:isstock="true">
      <path
         id="path14385"
         d="M 0,0 5,-5 -12.5,0 5,5 Z"
         style="fill-rule:evenodd;stroke:#000000;stroke-width:1.00000003pt"
         transform="matrix(0.8,0,0,0.8,10,0)"
         inkscape:connector-curvature="0" />
    </marker>
  </defs>
  <sodipodi:namedview
     pagecolor="#ffffff"
     bordercolor="#666666"
     borderopacity="1"
     objecttolerance="10"
     gridtolerance="10"
     guidetolerance="10"
     inkscape:pageopacity="0"
     inkscape:pageshadow="2"
     inkscape:window-width="1271"
     inkscape:window-height="694"
     id="namedview4803"
     showgrid="false"
     inkscape:zoom="1.21079"
     inkscape:cx="-8.732012"
     inkscape:cy="9.2550475"
     inkscape:window-x="0"
     inkscape:window-y="0"
     inkscape:window-maximized="0"
     inkscape:current-layer="svg4801"
     inkscape:object-nodes="false"
     inkscape:snap-nodes="false"
     inkscape:snap-global="false"
     inkscape:pagecheckerboard="true"
     fit-margin-top="0"
     fit-margin-left="0"
     fit-margin-right="0"
     fit-margin-bottom="0" />
  <g
     inkscape:groupmode="layer"
     id="layer1"
     inkscape:label="add"
     style="display:none"
     transform="translate(-327.46967,-834.07326)" />
  <g
     inkscape:groupmode="layer"
     id="layer2"
     inkscape:label="trash"
     style="display:none"
     transform="translate(-327.46967,-834.07326)" />
  <g
     inkscape:groupmode="layer"
     id="layer3"
     inkscape:label="trash 1"
     style="display:none"
     transform="translate(-327.46967,-834.07326)" />
  <g
     id="g14277"
     transform="matrix(1.2635408,0,0,1.3320847,-523.08103,-1293.2665)"
     style="fill:#3f0d12;fill-opacity:1">
    <path
       style="fill:#3f0d12;stroke-width:0.48000002;fill-opacity:1"
       d="m 419.4476,1006.5656 c -0.70318,-0.2957 -1.51343,-1.0531 -1.80053,-1.6832 -0.77454,-1.6999 -1.55178,-9.61423 -1.63988,-16.69823 l -0.0776,-6.24 2.49465,-0.0653 c -0.006,5.81341 0.84575,12.10026 0.68076,17.36558 -0.11061,3.20045 0.0113,4.00065 0.69631,4.56975 1.7304,1.4379 19.83742,0.9237 21.69258,-0.616 0.60964,-0.5059 0.68186,-2.0135 0.47432,-9.90085 -0.17638,-6.7032 -0.41257,-9.4077 -0.84493,-9.6749 -0.207,-1.90816 1.60457,-1.13724 3.03115,-0.484 0.21356,0.1927 0.42956,5.1241 0.48,10.9587 l 0.0917,10.60845 -1.92,0.7049 c -1.18912,0.4366 -4.56943,0.8031 -8.88,0.9628 -3.828,0.1418 -8.364,0.364 -10.08,0.4937 -1.7883,0.1353 -3.66571,0.01 -4.39853,-0.3014 z"
       id="path14265"
       inkscape:connector-curvature="0" />
    <path
       style="fill:#3f0d12;stroke-width:0.48000002;fill-opacity:1"
       d="m 435.30086,999.54928 c -0.15308,-3.65658 -1.01517,-14.07699 -0.29529,-15.89396 0.51874,0.36391 2.08349,-0.33829 2.1344,0.24812 0.41921,4.82818 0.28252,10.10157 0.38616,15.27461 0.42899,1.95325 -1.39236,2.21525 -2.22527,0.37123 z"
       id="path14267"
       inkscape:connector-curvature="0" />
    <path
       style="fill:#3f0d12;stroke-width:0.48000002;fill-opacity:1"
       d="m 424.22737,999.89883 c -0.92713,-0.64933 -0.33176,-0.89716 -0.31637,-5.60466 0.009,-2.8322 -0.21859,-6.3185 -0.50633,-7.7473 -0.28773,-1.4287 -0.46651,-2.6543 -0.39727,-2.7235 0.97998,-0.2715 1.76373,-0.31565 2.82621,-0.4388 l 0.21753,7.44 c 0.11965,4.092 0.32126,7.9128 0.44802,8.4906 0.30339,1.38293 -1.01523,1.46373 -2.27179,0.58366 z"
       id="path14269"
       inkscape:connector-curvature="0" />
    <path
       style="fill:#3f0d12;stroke-width:0.48000002;fill-opacity:1"
       d="m 430.22325,999.59078 c -0.82533,-3.0122 -1.06018,-7.88015 -0.85534,-15.84891 0.66414,-0.0879 1.69598,-0.15576 2.10435,0.1941 1.41272,5.4492 0.71645,9.46387 1.15503,15.717 0.13878,1.27543 -1.16625,1.01133 -2.40404,-0.0622 z"
       id="path14271"
       inkscape:connector-curvature="0" />
    <path
       style="fill:#3f0d12;stroke-width:0.48000002;fill-opacity:1"
       d="m 414.05497,979.86367 c -0.23987,-1.43401 0.12881,-1.8755 0.67148,-1.82623 0.85205,0.0774 1.96531,0.47015 2.01071,-1.49287 l 0.14897,-1.8 4.56,-0.24 4.56,-0.24 0.45508,-1.5451 c 0.56361,-1.9136 1.19783,-2.1726 3.85996,-1.576 1.15433,0.2587 2.76167,0.3378 3.57188,0.1758 1.3624,-0.2725 1.49652,-0.1775 1.78503,1.2651 l 0.31194,1.5597 2.44806,-0.3107 c 5.16061,-0.6549 4.83173,-0.7544 4.99565,1.5112 0.12532,1.7321 0.30644,2.0411 1.2,2.0474 0.57882,0 1.3764,0.22 1.7724,0.48 0.64,0.4201 0.64,0.5252 0,0.9453 -0.396,0.26 -1.26,0.4762 -1.92,0.4804 -6.26996,0.041 -20.06087,0.4614 -24.52897,0.7479 -3.95203,0.2535 -5.66572,0.2007 -5.90219,-0.1819 z"
       id="path14273"
       inkscape:connector-curvature="0" />
    <path
       style="fill:#3f0d12;stroke-width:0.48000002;fill-opacity:1"
       d="m 442.07061,976.64546 c -0.21648,-0.5641 -0.28049,-1.08284 -2.5822,-0.69034 -7.14516,0.18459 -13.7072,0.25031 -20.80036,0.76386 -0.5084,0.8528 0.12039,0.77846 0.12039,1.73404 4.1183,-0.99844 23.75696,-0.34434 23.26217,-1.80756 z"
       id="path14275"
       inkscape:connector-curvature="0" />
  </g>
</svg>
